<?xml version="1.0" encoding="utf-8"?>
<!-- Generator: Adobe Illustrator 18.1.0, SVG Export Plug-In . SVG Version: 6.00 Build 0)  -->
<svg version="1.1" id="Art" xmlns="http://www.w3.org/2000/svg" xmlns:xlink="http://www.w3.org/1999/xlink" x="0px" y="0px"
	 width="960px" height="960px" viewBox="182 -60.1 960 960" enable-background="new 182 -60.1 960 960" xml:space="preserve">
<g>
	<path fill="#01BC9D" d="M264.6,24.5c-1.4,1-3.1,1.6-5,1.6c-4.8,0-8.6-3.9-8.6-8.6c0-4.8,3.9-8.6,8.6-8.6c4.8,0,8.6,3.9,8.6,8.6
		c0,2.4-1,4.5-2.5,6.1l6.1,6.1c0.3,0.3,0.3,0.7,0,1c-0.3,0.3-0.7,0.3-1,0L264.6,24.5L264.6,24.5L264.6,24.5z M259.6,25.1
		c4.2,0,7.6-3.4,7.6-7.6s-3.4-7.6-7.6-7.6c-4.2,0-7.6,3.4-7.6,7.6S255.4,25.1,259.6,25.1L259.6,25.1L259.6,25.1z"/>
	<path fill="#00A384" d="M424.6,24.5c-1.4,1-3.1,1.6-5,1.6c-4.8,0-8.6-3.9-8.6-8.6c0-4.8,3.9-8.6,8.6-8.6c4.8,0,8.6,3.9,8.6,8.6
		c0,2.4-1,4.5-2.5,6.1l6.1,6.1c0.3,0.3,0.3,0.7,0,1c-0.3,0.3-0.7,0.3-1,0L424.6,24.5L424.6,24.5L424.6,24.5z M419.6,25.1
		c4.2,0,7.6-3.4,7.6-7.6s-3.4-7.6-7.6-7.6c-4.2,0-7.6,3.4-7.6,7.6S415.4,25.1,419.6,25.1L419.6,25.1L419.6,25.1z"/>
	<g>
		<path fill="#262425" d="M432.6,166.1c-1.2,0-3.5,0-4.5,0c0.1,0.5,0.3,1.6,0.3,1.6c0,0,0,0,0,0.1l0.1,0.3l0,0.4c0,0.4,0,0.8,0,1.2
			c0,0.4,0,0.8-0.1,1.1l-0.3,1.1c-0.6,1.4-1.5,2.5-2.6,3.4c-2.3,1.6-5.2,1.7-7.3,0.6c-2.1-1-3.4-2.8-3.9-4.5
			c-0.1-0.2-0.2-0.4-0.2-0.6c0-0.2-0.1-0.4-0.1-0.6c0-0.4-0.1-0.8-0.1-1.1c0-0.4,0-0.6,0-1.1c0.1-0.1-0.2-0.1-0.3-0.2l0-0.2
			c0-0.1,0-0.3,0.1-0.4c0,0,0,0,0,0c-0.2-0.1-0.3-0.2-0.5-0.2c-1,0.1-1.2,0.2-1.2,0.2c0,0.1,0.5,0.2,1,0.2c0.1,0,0.2,0,0.4,0.1
			c0,0,0,0,0,0c-0.3,0.5-0.5,2.3,0,4.2c0.4,1.9,1.8,4.2,4.3,5.5c0.4,0.2,0.8,0.4,1.3,0.6c-0.5,0-1.1,0-1.6,0c-1,0-2,0-3,0.1
			c-0.5,0-0.9,0-1.4,0l-0.2,0c-0.2-6.6-0.4-10.7-0.7-10.7c-0.3,0-0.5,4.3-0.7,11.2l0,0.3l0,0c0,0,0,0.4,0.2,0.6
			c0.2,0.2,0.3,0.3,0.7,0.2c0.1,0,0.8,0,0.8,0c0.5,0,0.9-0.1,1.4-0.1c0.9,0,1.9,0,3,0c2,0,4.2,0,6.5,0.1c1.1,0,2.3,0,3.5,0
			c0.6,0,1.2,0,1.8,0l0.9,0c0.3,0,0.7,0,1.2,0c0.3,0,0.5,0,0.7-0.1c0.2-0.1,0.4-0.1,0.5-0.3c0.1-0.5,0.2-1.2,0.2-1.6
			c0-0.6,0-1.3,0-1.9c0-1.3,0-2.6,0-3.9C432.6,169.8,432.6,167.9,432.6,166.1z M412.5,179.3C412.5,179.3,412.5,179.3,412.5,179.3
			C412.5,179.3,412.5,179.3,412.5,179.3L412.5,179.3z M412.5,179.2L412.5,179.2C412.5,179.2,412.5,179.2,412.5,179.2z M412.7,178.8
			L412.7,178.8C412.7,178.8,412.7,178.8,412.7,178.8z M430.7,177.6c-2.1,0-4.2,0-6.2,0c0.7-0.2,1.4-0.6,2-1c1.4-1,2.6-2.4,3.3-4.1
			c0.1-0.4,0.3-0.9,0.4-1.3c0.1-0.5,0.1-0.9,0.2-1.4c0.1-0.5,0-1,0-1.4l0.3,0c0,0,0,2.6,0,3.9c0,1.3,0,2.4,0,3.6
			C430.7,176.5,430.7,177,430.7,177.6C430.7,177.8,430.7,177.6,430.7,177.6z"/>
		<g>
			<path fill="#262425" d="M421.8,164.5c0,0.2-0.4,0.3-1.1,0.5c-0.7,0.3-1.6,0.9-2.3,1.9c-0.7,1-1,2.6-0.4,4
				c0.5,1.5,2.1,2.6,3.9,2.6c1.8,0,3.3-1.2,3.9-2.6c0.6-1.4,0.3-3-0.4-4c-0.7-1-1.6-1.6-2.3-1.9
				C422.2,164.7,421.8,164.6,421.8,164.5c0-0.1,0.5-0.3,1.3-0.2c0.9,0.1,2.1,0.5,3.2,1.8c1.1,1.2,1.7,3.3,1,5.5c-0.4,1-1,2.1-2,2.8
				c-1,0.7-2.2,1.2-3.5,1.2c-1.3,0-2.6-0.5-3.5-1.2c-1-0.7-1.7-1.8-2-2.8c-0.7-2.1-0.1-4.3,1-5.5c1.1-1.2,2.4-1.7,3.2-1.8
				C421.3,164.2,421.8,164.4,421.8,164.5z"/>
		</g>
		<g>
			<path fill="#262425" d="M431.9,162.9c-0.3,0-0.5-1-0.7-2.6c0-0.1,0-0.2,0-0.3c0,0,0,0,0-0.1c-0.1,0-0.1-0.1-0.1-0.1
				c0,0,0,0-0.1,0c0,0,0,0,0,0l-0.2,0c-0.3,0-0.5,0-0.8,0c-0.5,0-1.1,0-1.7,0.1l-0.2,0c0,0,0,0,0,0c0,0,0,0,0,0c0,0,0,0,0,0
				c0,1,0,2,0,2.9c0,0,0,0,0,0c0,0,0,0,0,0c0,0,0,0,0,0c0,0,0.1,0,0.2,0l0.4,0c0.5,0,0.9,0.1,1.3,0.1c0.4,0.1,0.8,0.1,1.1,0.1
				c0.1,0,0.3,0,0.4-0.1C431.7,163.2,431.8,162.9,431.9,162.9c0.1,0,0.1,0.1,0.2,0.2c0.1,0.2,0,0.4-0.1,0.7c-0.2,0.3-0.5,0.6-1,0.7
				c-0.4,0.1-0.7,0.1-1.1,0.2c-0.4,0-0.9,0.1-1.3,0.1l-0.4,0c-0.1,0-0.1,0-0.2,0c-0.1,0-0.2,0-0.3,0c-0.2,0-0.5-0.1-0.7-0.3
				c-0.2-0.1-0.4-0.3-0.5-0.5c-0.3-0.3-0.4-1.1-0.4-1.3c0-0.3,0-0.6,0-0.9c0-0.6,0-1.2,0-1.8c0-0.6,0.3-1.2,0.8-1.6
				c0.2-0.2,0.5-0.3,0.8-0.4c0.1,0,0.3,0,0.4-0.1l0.2,0c0.6,0,1.1,0,1.7,0.1c0.3,0,0.5,0,0.8,0c0.1,0,0.8,0.1,1.1,0.3
				c0.4,0.2,0.6,0.6,0.7,1c0,0.2,0.1,0.4,0.1,0.6c0,0.1,0,0.2,0,0.3C432.5,161.9,432.2,162.9,431.9,162.9z"/>
		</g>
		<g>
			<path fill="#262425" d="M435.2,158.8c0.1,0,0.3,1.4,0.4,3.9c0.1,2.5,0.2,6.2,0.3,10.7c0,1.1,0,2.3,0.1,3.5c0,0.6,0,1.2,0,1.9
				c0,0.7-0.2,1.6-0.6,2.3c-0.5,0.7-1.2,1.3-2,1.5c-0.4,0.2-0.9,0.2-1.3,0.2l-1.1,0c-1.4,0-2.9,0-4.4,0c-3,0-6.1,0-9.4,0.1
				c-1.6,0-3.3,0-4.9,0c-0.4,0-1,0-1.5-0.2c-0.5-0.1-1-0.4-1.5-0.8c-0.9-0.7-1.4-1.9-1.4-3c0-6.9,0.1-13.4,0.1-19.3
				c0-0.6,0-1.7,0.5-2.6c0.4-0.8,1.2-1.5,2-1.8c0.4-0.2,0.9-0.3,1.3-0.3c0.4,0,0.7,0,1.1,0c0.7,0,1.4,0,2,0c2.6,0,5.1,0.1,7.4,0.1
				c2.3,0.1,4.3,0.1,6.1,0.1c0.9,0,1.7,0.1,2.5,0.1c0.7,0,1.5,0,2.2,0.2c1.4,0.5,2,1.6,2.1,2.2C435.4,158.4,435.2,158.8,435.2,158.8
				c-0.1,0-0.1-0.4-0.4-0.9c-0.3-0.5-0.8-1.4-1.9-1.6c-0.5-0.1-1.2,0-2,0c-0.8,0-1.6,0.1-2.5,0.1c-1.8,0-3.8,0.1-6.1,0.1
				c-2.3,0-4.7,0.1-7.4,0.1c-0.7,0-1.3,0-2,0c-0.3,0-0.7,0-1,0c-0.2,0-0.5,0.1-0.7,0.2c-0.5,0.2-0.9,0.6-1.1,1
				c-0.2,0.5-0.2,0.9-0.2,1.7c0,5.9,0,12.5,0.1,19.3c0,0.6,0.3,1.1,0.7,1.5c0.2,0.2,0.5,0.3,0.7,0.4c0.1,0.1,0.3,0.1,0.4,0.1
				c0.1,0,0.3,0,0.5,0c1.7,0,3.3,0,4.9,0c3.2,0,6.4,0,9.4,0.1c1.5,0,2.9,0,4.4,0l1,0c0.3,0,0.5,0,0.8-0.1c0.5-0.1,0.9-0.4,1.2-0.8
				c0.3-0.4,0.4-0.8,0.4-1.4c0-0.6,0-1.3,0-1.9c0-1.2,0-2.4,0.1-3.5c0.1-4.5,0.2-8.1,0.3-10.7S435.1,158.8,435.2,158.8z"/>
		</g>
	</g>
	<g>
		<path fill="#58595B" d="M272.9,166.5c-1.2,0-3.5,0-4.5,0c0.1,0.5,0.3,1.6,0.3,1.6c0,0,0,0,0,0.1l0.1,0.3l0,0.4c0,0.4,0,0.8,0,1.2
			c0,0.4,0,0.8-0.1,1.1l-0.3,1.1c-0.6,1.4-1.5,2.5-2.6,3.4c-2.3,1.6-5.2,1.7-7.3,0.6c-2.1-1-3.4-2.8-3.9-4.5
			c-0.1-0.2-0.2-0.4-0.2-0.6c0-0.2-0.1-0.4-0.1-0.6c0-0.4-0.1-0.8-0.1-1.1c0-0.4,0-0.6,0-1.1c0.1-0.1-0.2-0.1-0.3-0.2l0-0.2
			c0-0.1,0-0.3,0.1-0.4c0,0,0,0,0,0c-0.2-0.1-0.3-0.2-0.5-0.2c-1,0.1-1.2,0.2-1.2,0.2c0,0.1,0.5,0.2,1,0.2c0.1,0,0.2,0,0.4,0.1
			c0,0,0,0,0,0c-0.3,0.5-0.5,2.3,0,4.2c0.4,1.9,1.8,4.2,4.3,5.5c0.4,0.2,0.8,0.4,1.3,0.6c-0.5,0-1.1,0-1.6,0c-1,0-2,0-3,0.1
			c-0.5,0-0.9,0-1.4,0l-0.2,0c-0.2-6.6-0.4-10.7-0.7-10.7c-0.3,0-0.5,4.3-0.7,11.2l0,0.3l0,0c0,0,0,0.4,0.2,0.6
			c0.2,0.2,0.3,0.3,0.7,0.2c0.1,0,0.8,0,0.8,0c0.5,0,0.9-0.1,1.4-0.1c0.9,0,1.9,0,3,0c2,0,4.2,0,6.5,0.1c1.1,0,2.3,0,3.5,0
			c0.6,0,1.2,0,1.8,0l0.9,0c0.3,0,0.7,0,1.2,0c0.3,0,0.5,0,0.7-0.1c0.2-0.1,0.4-0.1,0.5-0.3c0.1-0.5,0.2-1.2,0.2-1.6
			c0-0.6,0-1.3,0-1.9c0-1.3,0-2.6,0-3.9C272.9,170.1,272.9,168.2,272.9,166.5z M252.8,179.6C252.7,179.6,252.8,179.6,252.8,179.6
			C252.8,179.6,252.8,179.6,252.8,179.6L252.8,179.6z M252.8,179.5L252.8,179.5C252.8,179.5,252.8,179.5,252.8,179.5z M253,179.1
			L253,179.1C253,179.1,253,179.1,253,179.1z M270.9,177.9c-2.1,0-4.2,0-6.2,0c0.7-0.2,1.4-0.6,2-1c1.4-1,2.6-2.4,3.3-4.1
			c0.1-0.4,0.3-0.9,0.4-1.3c0.1-0.5,0.1-0.9,0.2-1.4c0.1-0.5,0-1,0-1.4l0.3,0c0,0,0,2.6,0,3.9c0,1.3,0,2.4,0,3.6
			C270.9,176.8,270.9,177.3,270.9,177.9C270.9,178.2,271,177.9,270.9,177.9z"/>
		<g>
			<path fill="#58595B" d="M261.8,164.5c0,0.2-0.4,0.3-1.1,0.5c-0.7,0.3-1.6,0.9-2.3,1.9c-0.7,1-1,2.6-0.4,4
				c0.5,1.5,2.1,2.6,3.9,2.6c1.8,0,3.3-1.2,3.9-2.6c0.6-1.4,0.3-3-0.4-4c-0.7-1-1.6-1.6-2.3-1.9
				C262.2,164.7,261.8,164.6,261.8,164.5c0-0.1,0.5-0.3,1.3-0.2c0.9,0.1,2.1,0.5,3.2,1.8c1.1,1.2,1.7,3.3,1,5.5c-0.4,1-1,2.1-2,2.8
				c-1,0.7-2.2,1.2-3.5,1.2c-1.3,0-2.6-0.5-3.5-1.2c-1-0.7-1.7-1.8-2-2.8c-0.7-2.1-0.1-4.3,1-5.5c1.1-1.2,2.4-1.7,3.2-1.8
				C261.3,164.2,261.8,164.4,261.8,164.5z"/>
		</g>
		<g>
			<path fill="#58595B" d="M271.9,162.9c-0.3,0-0.5-1-0.7-2.6c0-0.1,0-0.2,0-0.3c0,0,0,0,0-0.1c-0.1,0-0.1-0.1-0.1-0.1
				c0,0,0,0-0.1,0c0,0,0,0,0,0l-0.2,0c-0.3,0-0.5,0-0.8,0c-0.5,0-1.1,0-1.7,0.1l-0.2,0c0,0,0,0,0,0c0,0,0,0,0,0c0,0,0,0,0,0
				c0,1,0,2,0,2.9c0,0,0,0,0,0c0,0,0,0,0,0c0,0,0,0,0,0c0,0,0.1,0,0.2,0l0.4,0c0.5,0,0.9,0.1,1.3,0.1c0.4,0.1,0.8,0.1,1.1,0.1
				c0.1,0,0.3,0,0.4-0.1C271.7,163.2,271.8,162.9,271.9,162.9c0.1,0,0.1,0.1,0.2,0.2c0.1,0.2,0,0.4-0.1,0.7c-0.2,0.3-0.5,0.6-1,0.7
				c-0.4,0.1-0.7,0.1-1.1,0.2c-0.4,0-0.9,0.1-1.3,0.1l-0.4,0c-0.1,0-0.1,0-0.2,0c-0.1,0-0.2,0-0.3,0c-0.2,0-0.5-0.1-0.7-0.3
				c-0.2-0.1-0.4-0.3-0.5-0.5c-0.3-0.3-0.4-1.1-0.4-1.3c0-0.3,0-0.6,0-0.9c0-0.6,0-1.2,0-1.8c0-0.6,0.3-1.2,0.8-1.6
				c0.2-0.2,0.5-0.3,0.8-0.4c0.1,0,0.3,0,0.4-0.1l0.2,0c0.6,0,1.1,0,1.7,0.1c0.3,0,0.5,0,0.8,0c0.1,0,0.8,0.1,1.1,0.3
				c0.4,0.2,0.6,0.6,0.7,1c0,0.2,0.1,0.4,0.1,0.6c0,0.1,0,0.2,0,0.3C272.5,161.9,272.2,162.9,271.9,162.9z"/>
		</g>
		<g>
			<path fill="#58595B" d="M275.2,158.8c0.1,0,0.3,1.4,0.4,3.9c0.1,2.5,0.2,6.2,0.3,10.7c0,1.1,0,2.3,0.1,3.5c0,0.6,0,1.2,0,1.9
				c0,0.7-0.2,1.6-0.6,2.3c-0.5,0.7-1.2,1.3-2,1.5c-0.4,0.2-0.9,0.2-1.3,0.2l-1,0c-1.4,0-2.9,0-4.4,0c-3,0-6.1,0-9.4,0.1
				c-1.6,0-3.3,0-4.9,0c-0.4,0-1,0-1.5-0.2c-0.5-0.1-1-0.4-1.5-0.8c-0.9-0.7-1.4-1.9-1.4-3c0-6.9,0.1-13.4,0.1-19.3
				c0-0.6,0-1.7,0.5-2.6c0.4-0.8,1.2-1.5,2-1.8c0.4-0.2,0.9-0.3,1.3-0.3c0.4,0,0.7,0,1.1,0c0.7,0,1.4,0,2,0c2.6,0,5.1,0.1,7.4,0.1
				c2.3,0.1,4.3,0.1,6.1,0.1c0.9,0,1.7,0.1,2.5,0.1c0.7,0,1.5,0,2.2,0.2c1.4,0.5,2,1.6,2.1,2.2C275.4,158.4,275.2,158.8,275.2,158.8
				c-0.1,0-0.1-0.4-0.4-0.9c-0.3-0.5-0.8-1.4-1.9-1.6c-0.5-0.1-1.2,0-2,0c-0.8,0-1.6,0.1-2.5,0.1c-1.8,0-3.8,0.1-6.1,0.1
				c-2.3,0-4.7,0.1-7.4,0.1c-0.7,0-1.3,0-2,0c-0.3,0-0.7,0-1,0c-0.2,0-0.5,0.1-0.7,0.2c-0.5,0.2-0.9,0.6-1.1,1
				c-0.2,0.5-0.2,0.9-0.2,1.7c0,5.9,0,12.5,0.1,19.3c0,0.6,0.3,1.1,0.7,1.5c0.2,0.2,0.5,0.3,0.7,0.4c0.1,0.1,0.3,0.1,0.4,0.1
				c0.1,0,0.3,0,0.5,0c1.7,0,3.3,0,4.9,0c3.2,0,6.4,0,9.4,0.1c1.5,0,2.9,0,4.4,0l1,0c0.3,0,0.5,0,0.8-0.1c0.5-0.1,0.9-0.4,1.2-0.8
				c0.3-0.4,0.4-0.8,0.4-1.4c0-0.6,0-1.3,0-1.9c0-1.2,0-2.4,0.1-3.5c0.1-4.5,0.2-8.1,0.3-10.7C274.9,160.2,275.1,158.8,275.2,158.8z
				"/>
		</g>
	</g>
	<g>
		<path fill="#58595B" d="M269.5,345c1.5-1.5,2.6-4.2,2.7-7.4c0.3-3.2-1.8-6.8-5.3-8.2c-1.8-0.7-3.8-1-5.8-0.6l-0.8,0.1
			c-0.2,0-0.5,0.1-0.7,0.2l-1.5,0.4c-0.9,0.5-1.8,0.9-2.6,1.6c-1.5,1.3-2.8,3.1-3.2,5c-0.4,1.9-0.2,4.1,0.9,5.7c0.3,0.4,0.6,0.7,1,1
			c0.2,0.2,0.4,0.2,0.6,0.3c0.1,0.1,0.2,0.1,0.2,0.1c0,0,0,0.1,0,0.1c0,0,0,0-0.1,0c-0.1-0.1,0,0,0-0.1c0,0,0.1-0.2,0.1-0.3l0.2-0.7
			c0.1-0.3,0.1-0.4,0.1-0.4l-0.4-0.5c-0.7-0.9-0.9-2.1-0.9-3.2c0-0.5,0.1-1,0.1-1.6c0.1-0.5,0.3-1,0.4-1.5c0.7-1.9,2.2-3.4,3.8-4.1
			c1.6-0.8,3.4-1,4.9-0.8c1.5,0.2,3,0.7,3.9,1.6c1,0.8,1.5,1.9,1.8,2.7c0.3,0.9,0.3,1.6,0.3,2c0,0.5,0,0.7,0,0.7
			c0,1.4-0.3,3.1-1,4.7c-0.4,0.8-0.9,1.7-1.6,2.4c-0.7,0.7-1.8,1.3-3,1.3c-1.2,0-2.5-0.6-3-1.9c-0.3-0.6-0.3-1.3-0.2-1.9
			c0.1-0.5,0.3-1,0.4-1.5c0.3-1,0.6-2,0.8-3c0.2-1,0.1-1.9-0.5-2.3c-0.6-0.4-1.6-0.3-2.2,0.4c-0.6,0.6-1,1.6-1,2.6
			c0,0.5,0,1,0.1,1.5c0,0.2,0.1,0.5,0.2,0.7c0,0.1,0.3,0.4,0.1,0.7l-0.1,0.5c-0.3,1.1-0.5,2.1-0.8,3.1c-0.3,1-0.5,2.1-0.7,3.1
			c-0.3,1-0.5,2-0.6,2.9c-0.1,0.5-0.1,0.9-0.1,1.4c0,0.5,0,0.9,0,1.4c0,0.3,0,0.5,0.1,0.8c0,0.1,0,0.2,0.1,0.1c0,0,0.1-0.1,0.1-0.1
			c0.2-0.3,0.4-0.6,0.6-0.9c0.2-0.4,0.5-0.8,0.7-1.2c0.4-0.8,0.7-1.6,1-2.3c0.2-0.8,0.4-1.5,0.6-2.2c0.2-0.5,0.5-1.9,0.7-2.3
			c0.3,0.5,0.7,1,1,1.3c0.2,0.2,0.5,0.3,0.7,0.5c0.5,0.2,0.9,0.4,1.2,0.5c0.7,0.2,1,0.2,1,0.3c0,0-0.4,0.2-1.1,0
			c-0.4-0.1-0.8-0.2-1.3-0.4c-0.2-0.1-0.5-0.3-0.8-0.5c-0.1-0.1-0.3-0.2-0.4-0.4c-0.1-0.1,0,0.1-0.1,0.1l0,0.3
			c-0.1,0.3-0.1,0.5-0.2,0.8c-0.2,0.7-0.3,1.5-0.5,2.3c-0.3,0.8-0.5,1.7-1,2.5c-0.2,0.4-0.5,0.8-0.7,1.3l-0.4,0.6
			c-0.2,0.3-0.5,0.6-0.7,1c-0.3,0.1-0.5,0.5-0.9,0.3c-0.2,0-0.2-0.3-0.3-0.4c-0.1-0.2-0.2-0.3-0.2-0.6c0-0.4-0.1-0.8-0.1-1.2
			c0-0.3-0.1-0.6,0-1c-0.1-1.3,0.1-2.7,0.4-4.1c0.3-1.3,0.6-2.7,0.9-4.1c0.2-0.7,0.3-1.4,0.5-2.2l0.3-1.1l0.1-0.2c0,0,0,0,0,0
			l-0.2-0.5c-0.4-1.6-0.5-3.5,0.6-5c0.5-0.8,1.3-1.4,2.4-1.6c0.5-0.1,1,0,1.5,0.2c0.5,0.2,0.9,0.6,1.2,1.1c0.2,0.5,0.4,1,0.4,1.5
			c0,0.5-0.1,0.9-0.1,1.4c-0.2,0.9-0.4,1.7-0.7,2.5c-0.1,0.4-0.2,0.8-0.3,1.2c-0.1,0.4-0.3,0.8-0.3,1.1c-0.1,0.6,0.2,1.2,0.7,1.6
			c0,0,0.5,0.5,1.7,0.3c1.2-0.2,2.6-1.7,3.3-4.1c0.6-2.2,1-5.6-1.3-7.5c-2.2-1.8-6.1-1.8-8.6,0.1c-1.3,0.9-2.2,2.3-2.5,3.9
			c-0.3,1.5-0.3,3.1,0.6,4.2c0.1,0.2,0.3,0.3,0.4,0.7c0.1,0.4,0,0.7-0.1,0.8c-0.1,0.4-0.2,0.8-0.3,1.1c-0.1,0.2-0.1,0.3-0.2,0.5
			c-0.1,0.1-0.3,0.3-0.5,0.3c-0.2,0.1-0.4,0.1-0.5,0c-0.2,0-0.3-0.1-0.4-0.1c-0.4-0.2-0.8-0.4-1.1-0.7c-1.3-1-1.9-2.5-2.1-3.8
			c-0.1-0.7-0.2-1.3-0.2-1.9c0.1-0.6,0.1-1.2,0.2-1.7c0.3-1.1,0.6-2,1-2.6c0.2-0.3,0.3-0.7,0.5-0.9c0.2-0.2,0.4-0.4,0.5-0.6
			c0.3-0.3,0.4-0.5,0.4-0.5c4.9-5.4,14.2-4.6,17.6,0.6c0.8,1.3,1.4,2.6,1.5,4c0,0.3,0.1,0.7,0.1,1c0,0.3-0.1,0.7-0.1,1
			c-0.1,0.6-0.1,1.3-0.2,1.9c-0.2,0.6-0.2,1.2-0.5,1.7c-0.2,0.5-0.4,1.1-0.7,1.6c-0.6,0.9-1.1,1.8-1.8,2.4c-0.2,0.2-0.3,0.3-0.5,0.5
			c-0.2,0.1-0.4,0.2-0.5,0.3c-0.3,0.2-0.7,0.4-1,0.6c-0.7,0.2-1.3,0.5-1.8,0.6c-1,0.1-1.6,0.1-1.7,0.1c-0.1,0,0.3-0.1,1.3-0.3
			C266.5,347.1,268,346.6,269.5,345z"/>
	</g>
	<g>
		<path fill="#C8242D" d="M429.5,345c1.5-1.5,2.6-4.2,2.7-7.4c0.3-3.2-1.8-6.8-5.3-8.2c-1.8-0.7-3.8-1-5.8-0.6l-0.8,0.1
			c-0.2,0-0.5,0.1-0.7,0.2l-1.5,0.4c-0.9,0.5-1.8,0.9-2.6,1.6c-1.5,1.3-2.8,3.1-3.2,5c-0.4,1.9-0.2,4.1,0.9,5.7c0.3,0.4,0.6,0.7,1,1
			c0.2,0.2,0.4,0.2,0.6,0.3c0.1,0.1,0.2,0.1,0.2,0.1c0,0,0,0.1,0,0.1c0,0,0,0-0.1,0c-0.1-0.1,0,0,0-0.1c0,0,0.1-0.2,0.1-0.3l0.2-0.7
			c0.1-0.3,0.1-0.4,0.1-0.4l-0.4-0.5c-0.7-0.9-0.9-2.1-0.9-3.2c0-0.5,0.1-1,0.1-1.6c0.1-0.5,0.3-1,0.4-1.5c0.7-1.9,2.2-3.4,3.8-4.1
			c1.6-0.8,3.4-1,4.9-0.8c1.5,0.2,3,0.7,3.9,1.6c1,0.8,1.6,1.9,1.8,2.7c0.3,0.9,0.3,1.6,0.3,2c0,0.5,0,0.7,0,0.7
			c0,1.4-0.3,3.1-1,4.7c-0.4,0.8-0.9,1.7-1.6,2.4c-0.7,0.7-1.8,1.3-3,1.3c-1.2,0-2.5-0.6-3-1.9c-0.3-0.6-0.3-1.3-0.2-1.9
			c0.1-0.5,0.3-1,0.4-1.5c0.3-1,0.6-2,0.8-3c0.2-1,0.1-1.9-0.5-2.3c-0.6-0.4-1.6-0.3-2.2,0.4c-0.6,0.6-1,1.6-1,2.6
			c0,0.5,0,1,0.1,1.5c0,0.2,0.1,0.5,0.2,0.7c0,0.1,0.3,0.4,0.1,0.7l-0.1,0.5c-0.3,1.1-0.5,2.1-0.8,3.1c-0.3,1-0.5,2.1-0.7,3.1
			c-0.3,1-0.5,2-0.6,2.9c-0.1,0.5-0.1,0.9-0.1,1.4c0,0.5,0,0.9,0,1.4c0,0.3,0,0.5,0.1,0.8c0,0.1,0,0.2,0.1,0.1
			c0.1,0,0.1-0.1,0.1-0.1c0.2-0.3,0.4-0.6,0.6-0.9c0.2-0.4,0.5-0.8,0.7-1.2c0.4-0.8,0.7-1.6,1-2.3c0.2-0.8,0.4-1.5,0.6-2.2
			c0.2-0.5,0.5-1.9,0.7-2.3c0.3,0.5,0.7,1,1,1.3c0.2,0.2,0.5,0.3,0.7,0.5c0.4,0.2,0.9,0.4,1.2,0.5c0.7,0.2,1,0.2,1,0.3
			c0,0-0.4,0.2-1.1,0c-0.4-0.1-0.8-0.2-1.3-0.4c-0.2-0.1-0.5-0.3-0.8-0.5c-0.1-0.1-0.3-0.2-0.4-0.4c-0.1-0.1-0.1,0.1-0.1,0.1l0,0.3
			c-0.1,0.3-0.1,0.5-0.2,0.8c-0.2,0.7-0.3,1.5-0.5,2.3c-0.3,0.8-0.5,1.7-1,2.5c-0.2,0.4-0.5,0.8-0.7,1.3l-0.4,0.6
			c-0.2,0.3-0.5,0.6-0.7,1c-0.3,0.1-0.5,0.5-0.9,0.3c-0.2,0-0.2-0.3-0.3-0.4c-0.1-0.2-0.2-0.3-0.2-0.6c0-0.4-0.1-0.8-0.1-1.2
			c0-0.3-0.1-0.6-0.1-1c-0.1-1.3,0.1-2.7,0.4-4.1c0.3-1.3,0.6-2.7,0.9-4.1c0.2-0.7,0.3-1.4,0.5-2.2l0.3-1.1l0.1-0.2c0,0,0,0,0,0
			l-0.2-0.5c-0.4-1.6-0.5-3.5,0.6-5c0.5-0.8,1.3-1.4,2.4-1.6c0.5-0.1,1,0,1.5,0.2c0.5,0.2,0.9,0.6,1.2,1.1c0.2,0.5,0.4,1,0.4,1.5
			c0,0.5-0.1,0.9-0.1,1.4c-0.2,0.9-0.4,1.7-0.7,2.5c-0.1,0.4-0.2,0.8-0.3,1.2c-0.1,0.4-0.3,0.8-0.3,1.1c-0.1,0.6,0.2,1.2,0.7,1.6
			c0,0,0.5,0.5,1.7,0.3c1.2-0.2,2.6-1.7,3.3-4.1c0.6-2.2,1-5.6-1.3-7.5c-2.2-1.8-6.1-1.8-8.6,0.1c-1.3,0.9-2.2,2.3-2.5,3.9
			c-0.3,1.5-0.3,3.1,0.6,4.2c0.1,0.2,0.3,0.3,0.4,0.7c0.1,0.4,0,0.7-0.1,0.8c-0.1,0.4-0.2,0.8-0.3,1.1c-0.1,0.2-0.1,0.3-0.2,0.5
			c-0.2,0.1-0.3,0.3-0.5,0.3c-0.2,0.1-0.4,0.1-0.5,0c-0.2,0-0.3-0.1-0.4-0.1c-0.4-0.2-0.8-0.4-1.1-0.7c-1.3-1-1.9-2.5-2.1-3.8
			c-0.1-0.7-0.2-1.3-0.2-1.9c0.1-0.6,0.1-1.2,0.2-1.7c0.3-1.1,0.6-2,1-2.6c0.2-0.3,0.3-0.7,0.5-0.9c0.2-0.2,0.4-0.4,0.5-0.6
			c0.3-0.3,0.4-0.5,0.4-0.5c4.9-5.4,14.2-4.6,17.6,0.6c0.8,1.3,1.4,2.6,1.5,4c0,0.3,0.1,0.7,0.1,1c0,0.3-0.1,0.7-0.1,1
			c-0.1,0.6-0.1,1.3-0.2,1.9c-0.2,0.6-0.2,1.2-0.5,1.7c-0.2,0.5-0.4,1.1-0.7,1.6c-0.6,0.9-1.1,1.8-1.8,2.4c-0.2,0.2-0.3,0.3-0.5,0.5
			c-0.2,0.1-0.4,0.2-0.5,0.3c-0.3,0.2-0.7,0.4-1,0.6c-0.7,0.2-1.3,0.5-1.8,0.6c-1,0.1-1.6,0.1-1.7,0.1c-0.1,0,0.3-0.1,1.3-0.3
			C426.5,347.1,428,346.6,429.5,345z"/>
	</g>
	<g>
		<path fill="#58595B" d="M267.6,483.3c0-0.2,0-0.5,0.1-0.8c-0.5,0-1,0-1.6,0c-0.8,0-1.8,0-2.7,0c0-0.7,0-1.5,0-2.2
			c0-0.3,0-0.6,0-0.9c0-0.4,0-0.8,0.3-1.2c0.3-0.4,0.8-0.6,1.2-0.6c0.3,0,0.7,0,1,0c0.5,0,1,0,1.5,0c0-1.2,0-2.3,0-3.5l-1.7,0
			c-0.7,0-1.5,0-2.2,0c-1.4,0-2.6,0.5-3.4,1.4c-0.8,0.9-1.2,2.1-1.2,3.2c0,0.6,0,1.2,0,1.8c0,0.8,0,1.6,0,2.3c-0.8,0-1.5,0-2.1,0
			c-0.2,0-0.3,0-0.5,0l0,0c0,1.8,0,2.8,0,3.5c2.1,0,2.6,0,2.7,0c0,0.5,0,0.5,0,0.5c0,3.2,0,7.9,0,13c1.5,0,2.9,0,4.4,0
			c0-2.4,0.1-4.8,0.1-6.9c0.1-2.4,0.1-4.6,0.1-6.3c0.7,0,1.4,0,1.9,0.1c0.5,0,0.9,0.1,1.2,0.1c0.6,0.1,1,0.1,1,0.2
			c0,0.1-0.3,0.2-1,0.2c-0.3,0-0.7,0.1-1.2,0.1c-0.5,0-1.1,0.1-1.3,0.1c0,0.1,0,0.2,0,0.3c0,0.2,0,0.4,0,0.6c0,0.4,0,0.9,0,1.4
			c0,1,0,2,0.1,3.2c0,2.5,0.1,5.3,0.1,8.3c-2.2,0-4.5,0-6.8,0c0-2.3,0-4.6,0-7c0-2.1,0-4.3,0-6.4c0,0,0,0,0,0l-0.7,0
			c-0.6,0-1.3,0-1.9,0c0-2,0-3.9,0-5.9l1.9,0l0.7,0c0,0,0.1,0,0.1,0l0-1.2c0-0.6,0-1.2,0-1.9c0.1-1.3,0.6-2.6,1.4-3.6
			c0.4-0.5,1-0.9,1.6-1.2c0.3-0.1,0.6-0.2,0.9-0.3c0.3-0.1,0.6-0.2,1-0.2c1.3-0.2,2.5-0.1,3.7-0.1c0.7,0,1.4,0,2.1,0
			c0,1.9,0,3.8-0.1,5.5c-0.9,0-1.7,0-2.5,0c-0.3,0-0.7,0-1,0c-0.3,0-0.5,0.1-0.6,0.3c-0.3,0.3-0.2,1-0.2,1.6c0,0.5,0,1,0,1.5
			c1.6,0,3,0.1,4.2,0.1c-0.1,0.7-0.2,1.4-0.3,2c-0.1,0.5-0.1,1-0.2,1.4c-0.1,0.8-0.2,1.3-0.3,1.5
			C267.4,487.1,267.4,486.1,267.6,483.3z"/>
		<path fill="#58595B" d="M267.6,483.3c0-0.2,0-0.5,0.1-0.8c-0.5,0-1,0-1.6,0c-0.8,0-1.8,0-2.7,0c0-0.7,0-1.5,0-2.2
			c0-0.3,0-0.6,0-0.9c0-0.4,0-0.8,0.3-1.2c0.3-0.4,0.8-0.6,1.2-0.6c0.3,0,0.7,0,1,0c0.5,0,1,0,1.5,0c0-1.2,0-2.3,0-3.5l-1.7,0
			c-0.7,0-1.5,0-2.2,0c-1.4,0-2.6,0.5-3.4,1.4c-0.8,0.9-1.2,2.1-1.2,3.2c0,0.6,0,1.2,0,1.8c0,0.8,0,1.6,0,2.3c-0.8,0-1.5,0-2.1,0
			c-0.2,0-0.3,0-0.5,0l0,0c0,1.8,0,2.8,0,3.5c2.1,0,2.6,0,2.7,0c0,0.5,0,0.5,0,0.5c0,3.2,0,7.9,0,13c1.5,0,2.9,0,4.4,0
			c0-2.4,0.1-4.8,0.1-6.9c0.1-2.4,0.1-4.6,0.1-6.3c0.7,0,1.4,0,1.9,0.1c0.5,0,0.9,0.1,1.2,0.1c0.6,0.1,1,0.1,1,0.2
			c0,0.1-0.3,0.2-1,0.2c-0.3,0-0.7,0.1-1.2,0.1c-0.5,0-1.1,0.1-1.3,0.1c0,0.1,0,0.2,0,0.3c0,0.2,0,0.4,0,0.6c0,0.4,0,0.9,0,1.4
			c0,1,0,2,0.1,3.2c0,2.5,0.1,5.3,0.1,8.3c-2.2,0-4.5,0-6.8,0c0-2.3,0-4.6,0-7c0-2.1,0-4.3,0-6.4c0,0,0,0,0,0l-0.7,0
			c-0.6,0-1.3,0-1.9,0c0-2,0-3.9,0-5.9l1.9,0l0.7,0c0,0,0.1,0,0.1,0l0-1.2c0-0.6,0-1.2,0-1.9c0.1-1.3,0.6-2.6,1.4-3.6
			c0.4-0.5,1-0.9,1.6-1.2c0.3-0.1,0.6-0.2,0.9-0.3c0.3-0.1,0.6-0.2,1-0.2c1.3-0.2,2.5-0.1,3.7-0.1c0.7,0,1.4,0,2.1,0
			c0,1.9,0,3.8-0.1,5.5c-0.9,0-1.7,0-2.5,0c-0.3,0-0.7,0-1,0c-0.3,0-0.5,0.1-0.6,0.3c-0.3,0.3-0.2,1-0.2,1.6c0,0.5,0,1,0,1.5
			c1.6,0,3,0.1,4.2,0.1c-0.1,0.7-0.2,1.4-0.3,2c-0.1,0.5-0.1,1-0.2,1.4c-0.1,0.8-0.2,1.3-0.3,1.5
			C267.4,487.1,267.4,486.1,267.6,483.3z"/>
	</g>
	<g>
		<path fill="#38619D" d="M427.6,483.3c0-0.2,0-0.5,0.1-0.8c-0.5,0-1,0-1.6,0c-0.8,0-1.8,0-2.7,0c0-0.7,0-1.5,0-2.2
			c0-0.3,0-0.6,0-0.9c0-0.4,0-0.8,0.3-1.2c0.3-0.4,0.8-0.6,1.2-0.6c0.3,0,0.7,0,1,0c0.5,0,1,0,1.5,0c0-1.2,0-2.3,0-3.5l-1.7,0
			c-0.7,0-1.5,0-2.2,0c-1.4,0-2.6,0.5-3.4,1.4c-0.8,0.9-1.2,2.1-1.2,3.2c0,0.6,0,1.2,0,1.8c0,0.8,0,1.6,0,2.3c-0.8,0-1.5,0-2.1,0
			c-0.2,0-0.3,0-0.5,0l0,0c0,1.8,0,2.8,0,3.5c2.1,0,2.6,0,2.7,0c0,0.5,0,0.5,0,0.5c0,3.2,0,7.9,0,13c1.5,0,2.9,0,4.4,0
			c0-2.4,0.1-4.8,0.1-6.9c0.1-2.4,0.1-4.6,0.1-6.3c0.7,0,1.4,0,1.9,0.1c0.5,0,0.9,0.1,1.2,0.1c0.6,0.1,1,0.1,1,0.2
			c0,0.1-0.3,0.2-1,0.2c-0.3,0-0.7,0.1-1.2,0.1c-0.5,0-1.1,0.1-1.3,0.1c0,0.1,0,0.2,0,0.3c0,0.2,0,0.4,0,0.6c0,0.4,0,0.9,0,1.4
			c0,1,0,2,0.1,3.2c0,2.5,0.1,5.3,0.1,8.3c-2.2,0-4.5,0-6.8,0c0-2.3,0-4.6,0-7c0-2.1,0-4.3,0-6.4c0,0,0,0,0,0l-0.7,0
			c-0.6,0-1.3,0-1.9,0c0-2,0-3.9,0-5.9l1.9,0l0.7,0c0,0,0.1,0,0.1,0l0-1.2c0-0.6,0-1.2,0-1.9c0.1-1.3,0.6-2.6,1.4-3.6
			c0.4-0.5,1-0.9,1.6-1.2c0.3-0.1,0.6-0.2,0.9-0.3c0.3-0.1,0.6-0.2,1-0.2c1.3-0.2,2.5-0.1,3.7-0.1c0.7,0,1.4,0,2.1,0
			c0,1.9,0,3.8-0.1,5.5c-0.9,0-1.7,0-2.5,0c-0.3,0-0.7,0-1,0c-0.2,0-0.5,0.1-0.6,0.3c-0.3,0.3-0.2,1-0.2,1.6c0,0.5,0,1,0,1.5
			c1.6,0,3,0.1,4.2,0.1c-0.1,0.7-0.2,1.4-0.3,2c-0.1,0.5-0.1,1-0.2,1.4c-0.1,0.8-0.2,1.3-0.3,1.5
			C427.4,487.1,427.4,486.1,427.6,483.3z"/>
		<path fill="#38619D" d="M427.6,483.3c0-0.2,0-0.5,0.1-0.8c-0.5,0-1,0-1.6,0c-0.8,0-1.8,0-2.7,0c0-0.7,0-1.5,0-2.2
			c0-0.3,0-0.6,0-0.9c0-0.4,0-0.8,0.3-1.2c0.3-0.4,0.8-0.6,1.2-0.6c0.3,0,0.7,0,1,0c0.5,0,1,0,1.5,0c0-1.2,0-2.3,0-3.5l-1.7,0
			c-0.7,0-1.5,0-2.2,0c-1.4,0-2.6,0.5-3.4,1.4c-0.8,0.9-1.2,2.1-1.2,3.2c0,0.6,0,1.2,0,1.8c0,0.8,0,1.6,0,2.3c-0.8,0-1.5,0-2.1,0
			c-0.2,0-0.3,0-0.5,0l0,0c0,1.8,0,2.8,0,3.5c2.1,0,2.6,0,2.7,0c0,0.5,0,0.5,0,0.5c0,3.2,0,7.9,0,13c1.5,0,2.9,0,4.4,0
			c0-2.4,0.1-4.8,0.1-6.9c0.1-2.4,0.1-4.6,0.1-6.3c0.7,0,1.4,0,1.9,0.1c0.5,0,0.9,0.1,1.2,0.1c0.6,0.1,1,0.1,1,0.2
			c0,0.1-0.3,0.2-1,0.2c-0.3,0-0.7,0.1-1.2,0.1c-0.5,0-1.1,0.1-1.3,0.1c0,0.1,0,0.2,0,0.3c0,0.2,0,0.4,0,0.6c0,0.4,0,0.9,0,1.4
			c0,1,0,2,0.1,3.2c0,2.5,0.1,5.3,0.1,8.3c-2.2,0-4.5,0-6.8,0c0-2.3,0-4.6,0-7c0-2.1,0-4.3,0-6.4c0,0,0,0,0,0l-0.7,0
			c-0.6,0-1.3,0-1.9,0c0-2,0-3.9,0-5.9l1.9,0l0.7,0c0,0,0.1,0,0.1,0l0-1.2c0-0.6,0-1.2,0-1.9c0.1-1.3,0.6-2.6,1.4-3.6
			c0.4-0.5,1-0.9,1.6-1.2c0.3-0.1,0.6-0.2,0.9-0.3c0.3-0.1,0.6-0.2,1-0.2c1.3-0.2,2.5-0.1,3.7-0.1c0.7,0,1.4,0,2.1,0
			c0,1.9,0,3.8-0.1,5.5c-0.9,0-1.7,0-2.5,0c-0.3,0-0.7,0-1,0c-0.2,0-0.5,0.1-0.6,0.3c-0.3,0.3-0.2,1-0.2,1.6c0,0.5,0,1,0,1.5
			c1.6,0,3,0.1,4.2,0.1c-0.1,0.7-0.2,1.4-0.3,2c-0.1,0.5-0.1,1-0.2,1.4c-0.1,0.8-0.2,1.3-0.3,1.5
			C427.4,487.1,427.4,486.1,427.6,483.3z"/>
	</g>
	<g>
		<path fill="#34A9DE" d="M435.6,651.9c-0.2,0.1-0.4,0.1-0.6,0.2c0,0-0.4,0.1-0.6,0.1c-0.2,0-0.5,0.1-0.7,0.1l-2,0.3l1.7-1.1
			c1-0.6,1.9-1.6,2.3-3c0.2,0.2,0.4,0.3,0.6,0.5c-0.6,0.4-1.2,0.7-1.9,0.9c-0.3,0.1-0.7,0.3-1.1,0.4c-0.2,0.1-0.3,0.1-0.6,0.2
			c-0.2,0-0.3,0.1-0.5,0.1l-0.3-0.3c-1.1-1-2.4-1.5-3.9-1.5c-1.5,0.1-3,0.8-3.9,2c-0.5,0.6-0.8,1.3-1,2.1c-0.1,0.4-0.1,0.8-0.1,1.2
			l0,0.3l0,0.4l0.2,1.2L422,656c-0.3,0-0.4,0-0.5-0.1l-0.4-0.1c-0.5-0.1-1.1-0.2-1.6-0.3c-1-0.2-2-0.6-3-1c-1.9-0.9-3.6-2.1-5.1-3.5
			l-0.5-0.5c0,0,0,0,0,0.1c-0.3,0.8-0.3,1.6-0.2,2.4c0.2,1.5,1.1,2.8,2.2,3.6l2,1.3l-2.4-0.1c-0.6,0-1.2-0.1-1.6-0.2
			c-0.1,0-0.1,0-0.2-0.1c0,0,0,0,0,0l0,0.2c0.1,0.4,0.2,0.8,0.4,1.1c0.3,0.7,0.8,1.2,1.2,1.6c0.9,0.8,1.8,1,2.3,1.1l2.7,0.6
			l-2.7,0.7c-0.5,0.1-1,0.2-1.3,0.2c-0.2,0-0.3,0-0.4,0l0,0c0,0,0,0,0,0c0.3,0.5,0.8,1.1,1.4,1.6c0.3,0.2,0.7,0.5,1.1,0.6
			c0.1,0.1,0.2,0.1,0.4,0.1c0.3,0.1,0.6,0.1,0.9,0.2c0.6,0.1,1.6,0.1,2.3,0.2c-0.4,0.3-0.8,0.6-1.3,0.9c-0.5,0.3-0.9,0.7-1.6,1.1
			l-0.3,0.2l-0.3,0.1c-0.2,0.1-0.4,0.2-0.5,0.3c-0.4,0.2-0.7,0.3-1.1,0.5c-1.6,0.6-3.5,0.8-5.5,0.6c0.1-0.3,0.3-0.7,0.4-1.2
			c3.3,2.1,7.5,3,11.5,2.3c4-0.6,7.4-2.9,9.5-5.5c2.1-2.7,3.1-5.5,3.5-7.5c0.4-2,0.3-3.3,0.5-3.3c0.1,0,0.4,1,0.2,3
			c-0.2,1.9-0.8,4.7-2.7,7.5c-1.8,2.8-5.1,5.7-9.4,6.8c-4.3,1.1-9.5,0.7-13.7-2.1l-2.4-1.6l2.8,0.3c1.6,0.2,3.4,0,5-0.6
			c0.6-0.2,1.2-0.5,1.7-0.8c0,0,0,0,0,0l0,0l0,0c0,0-0.3-0.1-0.4-0.1c-0.6-0.2-1.2-0.6-1.7-1c-0.5-0.4-1-0.9-1.3-1.4
			c-0.1-0.1-0.2-0.3-0.3-0.4c-0.1-0.2-0.3-0.5-0.4-0.7c-0.2-0.5-0.4-1-0.6-1.5c0.4,0.1,0.9,0.1,1.3,0.2l0.6,0.1c0.2,0,0.2,0,0.3,0
			c0.4,0,0.8-0.1,1.1-0.2l0,1.2c-1.5-0.3-2.8-1.1-3.7-2.3c-0.9-1.3-1.4-2.3-1.4-5.1c0.4,0.2,0.8,0.4,1.2,0.6
			c0.2,0.1,0.4,0.2,0.6,0.2l0.3,0.1c0.4,0.1,0.8,0.2,1.2,0.2l-0.4,1.1c-1.6-1.1-2.7-2.9-2.8-4.8c-0.1-1,0-1.8,0.4-2.9
			c0.1-0.4,0.3-0.7,0.5-1l0.3-0.5l0.4,0.4l1.2,1.3c2.3,2.4,5.4,4,8.7,4.5c0.3,0,0.6,0.1,0.9,0.1c0.1,0,0.2,0,0.2,0l0-0.2
			c0,0,0-0.4,0-0.6c0-0.5,0.1-1,0.2-1.4c0.2-0.9,0.7-1.8,1.2-2.5c1.2-1.4,3-2.2,4.7-2.3c1.7-0.1,3.4,0.8,4.4,1.8
			c0.1,0.1,0.1,0.1,0.2,0.1l0.5-0.1c0.3-0.1,0.7-0.2,1-0.3c0.6-0.2,1.2-0.5,1.8-0.8l0.7-0.4l-0.3,0.7c-0.5,1.5-1.6,2.7-2.7,3.3
			c0-0.1-0.1-0.3-0.1-0.4c0.6-0.1,1-0.1,1.7-0.3c0.7-0.2,1.3-0.4,1.7-0.6c0.3-0.1-0.1,0.3-0.3,0.6c-0.2,0.3-0.4,0.5-0.6,0.8
			c-0.4,0.5-0.8,0.8-1.1,1c-0.6,0.5-1,0.7-1.1,0.7c-0.1,0,0.2-0.2,0.7-0.7c0.3-0.3,0.6-0.6,0.8-0.8c0.1-0.1,0.2-0.3,0.3-0.4l0.1-0.2
			c0,0,0.1-0.1,0-0.1l-0.2,0.1C435.8,651.8,435.7,651.8,435.6,651.9z"/>
	</g>
	<g>
		<path fill="#58595B" d="M275.6,651.9c-0.2,0.1-0.4,0.1-0.6,0.2c0,0-0.4,0.1-0.6,0.1c-0.2,0-0.5,0.1-0.7,0.1l-2,0.3l1.7-1.1
			c1-0.6,1.9-1.6,2.3-3c0.2,0.2,0.4,0.3,0.6,0.5c-0.6,0.4-1.2,0.7-1.9,0.9c-0.3,0.1-0.7,0.3-1.1,0.4c-0.2,0.1-0.3,0.1-0.6,0.2
			c-0.2,0-0.3,0.1-0.5,0.1l-0.3-0.3c-1.1-1-2.4-1.5-3.9-1.5c-1.5,0.1-3,0.8-3.9,2c-0.5,0.6-0.8,1.3-1,2.1c-0.1,0.4-0.1,0.8-0.1,1.2
			l0,0.3l0,0.4l0.2,1.2L262,656c-0.3,0-0.4,0-0.5-0.1l-0.4-0.1c-0.5-0.1-1.1-0.2-1.6-0.3c-1-0.2-2-0.6-3-1c-1.9-0.9-3.6-2.1-5.1-3.5
			l-0.5-0.5c0,0,0,0,0,0.1c-0.3,0.8-0.3,1.6-0.2,2.4c0.2,1.5,1.1,2.8,2.2,3.6l2,1.3l-2.4-0.1c-0.6,0-1.2-0.1-1.6-0.2
			c-0.1,0-0.1,0-0.2-0.1c0,0,0,0,0,0l0,0.2c0.1,0.4,0.2,0.8,0.4,1.1c0.3,0.7,0.8,1.2,1.2,1.6c0.9,0.8,1.8,1,2.3,1.1l2.7,0.6
			l-2.7,0.7c-0.5,0.1-1,0.2-1.3,0.2c-0.2,0-0.3,0-0.4,0l0,0c0,0,0,0,0,0c0.3,0.5,0.8,1.1,1.4,1.6c0.3,0.2,0.7,0.5,1.1,0.6
			c0.1,0.1,0.2,0.1,0.4,0.1c0.3,0.1,0.6,0.1,0.9,0.2c0.6,0.1,1.6,0.1,2.3,0.2c-0.4,0.3-0.8,0.6-1.3,0.9c-0.5,0.3-0.9,0.7-1.5,1.1
			l-0.3,0.2l-0.3,0.1c-0.2,0.1-0.4,0.2-0.5,0.3c-0.4,0.2-0.7,0.3-1.1,0.5c-1.6,0.6-3.5,0.8-5.5,0.6c0.1-0.3,0.3-0.7,0.4-1.2
			c3.3,2.1,7.5,3,11.5,2.3c4-0.6,7.4-2.9,9.5-5.5c2.1-2.7,3.1-5.5,3.5-7.5c0.4-2,0.3-3.3,0.5-3.3c0.1,0,0.3,1,0.2,3
			c-0.2,1.9-0.8,4.7-2.7,7.5c-1.8,2.8-5.1,5.7-9.4,6.8c-4.3,1.1-9.5,0.7-13.7-2.1l-2.4-1.6l2.8,0.3c1.6,0.2,3.4,0,5-0.6
			c0.6-0.2,1.2-0.5,1.7-0.8c0,0,0,0,0,0l0,0l0,0c0,0-0.3-0.1-0.4-0.1c-0.6-0.2-1.2-0.6-1.7-1c-0.5-0.4-1-0.9-1.3-1.4
			c-0.1-0.1-0.2-0.3-0.3-0.4c-0.1-0.2-0.3-0.5-0.4-0.7c-0.2-0.5-0.4-1-0.6-1.5c0.4,0.1,0.9,0.1,1.3,0.2l0.6,0.1c0.2,0,0.2,0,0.3,0
			c0.4,0,0.8-0.1,1.1-0.2l0,1.2c-1.5-0.3-2.8-1.1-3.7-2.3c-0.9-1.3-1.4-2.3-1.4-5.1c0.4,0.2,0.8,0.4,1.2,0.6
			c0.2,0.1,0.4,0.2,0.6,0.2l0.3,0.1c0.4,0.1,0.8,0.2,1.2,0.2l-0.4,1.1c-1.6-1.1-2.7-2.9-2.8-4.8c-0.1-1,0-1.8,0.4-2.9
			c0.1-0.4,0.3-0.7,0.5-1l0.3-0.5l0.4,0.4l1.2,1.3c2.3,2.4,5.4,4,8.7,4.5c0.3,0,0.6,0.1,0.9,0.1c0.1,0,0.2,0,0.2,0l0-0.2
			c0,0,0-0.4,0-0.6c0-0.5,0.1-1,0.2-1.4c0.2-0.9,0.7-1.8,1.2-2.5c1.2-1.4,3-2.2,4.7-2.3c1.7-0.1,3.4,0.8,4.4,1.8
			c0.1,0.1,0.1,0.1,0.2,0.1l0.5-0.1c0.3-0.1,0.7-0.2,1-0.3c0.6-0.2,1.2-0.5,1.8-0.8l0.7-0.4l-0.3,0.7c-0.5,1.5-1.6,2.7-2.7,3.3
			c0-0.1-0.1-0.3-0.1-0.4c0.6-0.1,1-0.1,1.7-0.3c0.7-0.2,1.3-0.4,1.7-0.6c0.3-0.1-0.1,0.3-0.3,0.6c-0.2,0.3-0.4,0.5-0.6,0.8
			c-0.4,0.5-0.8,0.8-1.1,1c-0.6,0.5-1,0.7-1.1,0.7c-0.1,0,0.2-0.2,0.7-0.7c0.3-0.3,0.6-0.6,0.8-0.8c0.1-0.1,0.2-0.3,0.3-0.4l0.1-0.2
			c0,0,0.1-0.1,0-0.1l-0.2,0.1C275.8,651.8,275.7,651.8,275.6,651.9z"/>
	</g>
	<g>
		<path fill="#262425" d="M201.4,824.8c0-1.3,0-2.5-0.1-3.5c0-1.2-0.1-2.2-0.1-2.9c-0.1-1.5-0.2-1.5-0.2-1.5h0c0,0,0,0,0,0
			c0-0.1-0.3-0.1-0.7-0.1c-0.2,0-0.5,0-0.9-0.1c-0.4,0-0.6,0-1.4,0c0,1.5-0.1,3.4-0.1,5.4c0,2,0,4.1,0,5.8c1,0,1.8,0,2.5,0
			c0,0,2.3,0,5.7,0c0-0.9,0-1.9,0-3.1C204.7,824.8,203,824.8,201.4,824.8z"/>
		<path fill="#262425" d="M216.9,820.1c0-1.2,0-2.4,0-3.6c-1.2,0-2.3,0-3.3,0c0,1.8,0.1,3.4,0.1,4.5c0.1,2.2,0.1,2.2,0.1,2.2
			s0.1,0.4-0.2,1c-0.1,0.3-0.4,0.6-0.8,0.7c-0.4,0.1-1,0.1-1.4-0.1c-0.5-0.2-0.7-0.7-0.7-1.3c0-0.6,0-1.4,0-2.1c0-1.6,0-3.3,0-4.9
			c-1.2,0-2.3,0-3.5,0c0,1.4,0,2.8,0,4.1c0,1.2-0.1,2.1,0,3c0,0,0,0.2,0.1,0.5c0.1,0.3,0.2,0.9,0.5,1.5c0.3,0.6,0.8,1.3,1.6,1.7
			c0.8,0.5,1.8,0.6,2.9,0.6c1,0,2.2-0.3,3.1-1.1c0.9-0.8,1.4-2,1.5-3.2c0.1-0.6,0-1.2,0-1.8C216.9,821.3,216.9,820.7,216.9,820.1z"
			/>
		<path fill="#262425" d="M227.1,818.7c1.5-1.8,1.4-1.9,1.4-1.9h0c0,0,0,0,0,0c0,0-0.4-0.1-1-0.1c-0.3,0-0.7,0-1.2-0.1
			c-0.5,0-1,0-1.7,0c-0.4,0.5-0.9,1.2-1.5,1.8c-0.2,0.3-0.5,0.6-0.8,1c-0.2,0.2-0.1,0.2-0.2,0.2l-0.1,0.1l0-0.2c0-0.2,0-0.5,0-0.8
			c0-0.7,0-1.5,0-2.2c-1.1,0-2.3,0-3.4,0c0,3.5,0,6.8,0,8.9c0,0,0,0.5,0,2.4c0.7,0,1.7,0,3.5,0c0-0.9,0-2,0-3.5
			c0.1-0.1,0.2-0.2,0.3-0.4c0.8,1.2,1.6,2.5,2.6,3.9c1.4,0,2.8,0,4.3,0c-1.7-2.2-3.4-4.5-4.8-6.3
			C225.7,820.3,226.5,819.4,227.1,818.7z"/>
		<path fill="#262425" d="M238.3,824.8c-1.4,0-3,0-4.7,0c0-0.4,0-0.8,0-1.3c1.3,0,2.7,0,4,0c0-1,0-1.9,0-2.9c-1.5,0-2.8,0-4.1,0
			c0-0.5,0-1,0-1.4c0.8,0,1.6,0,2.2,0c2.1-0.1,2.3-0.2,2.3-0.2v0c0,0,0,0,0,0c0,0,0.1-0.2,0.1-0.6c0-0.2,0-0.4,0-0.7
			c0-0.3,0-0.7,0-1.1c-0.9,0-2.1,0-3.4-0.1c-1.4,0-2.9,0-4.5-0.1c0,3.8,0,8.1-0.1,11.3c1.1,0,2.2,0,3.1,0c0,0,1.9,0,5.1,0
			C238.3,827,238.3,826.1,238.3,824.8z"/>
	</g>
	<path fill="#262425" d="M289.7,821.9c-0.3-0.2-1.1-0.9-2.6-1.3c-0.4-0.1-0.7-0.2-1-0.4c-0.3-0.2-0.2-0.5,0.1-0.6
		c0.8-0.3,1.8-0.2,2.8,0.2l0.6,0.3c0.2,0.1,0.6,0.4,0.5,0c0-0.4,0-0.9,0-1.3l0-0.9l0-0.5v-0.2c0-0.1-0.1-0.1-0.2-0.1l-0.3-0.2
		c-1.1-0.5-2.3-0.7-3.5-0.6c-1.2,0.1-2.3,0.6-2.9,1.5c-0.7,0.9-0.7,1.9-0.6,2.7c0,0,0,0.3,0.2,0.9c0.1,0.3,0.3,0.6,0.6,0.9
		c0.3,0.3,0.7,0.6,1.2,0.8c0.4,0.2,1,0.4,1.5,0.5c0.3,0.1,0.6,0.1,0.8,0.2c0.2,0.1,0.5,0.2,0.5,0.3c0,0,0,0.1,0,0.2
		c0,0.1-0.1,0.1-0.2,0.2c-0.2,0.1-0.5,0.2-0.8,0.2c-0.6,0-1.3-0.1-1.8-0.3c-0.3-0.1-0.6-0.2-0.9-0.5l-0.8-0.6l-0.2-0.1c0,0,0,0,0,0
		v0.1l0,0.1v0.5c0,0.9,0,1.8,0,2.6c0,0.1,0.1,0.1,0.1,0.2l0.2,0.1c0.1,0,0.2,0.1,0.2,0.1c0.2,0.1,0.3,0.2,0.5,0.2
		c0.3,0.1,0.7,0.3,1,0.3c0.7,0.2,1.4,0.2,2.1,0.2c1.4,0,2.7-0.7,3.3-1.7c0.3-0.5,0.4-1.1,0.5-1.6c0-0.5-0.1-0.9-0.2-1.3
		C290.3,822.6,289.9,822.1,289.7,821.9z"/>
	<path fill="#262425" d="M298.5,816.7c-0.5,0-0.8,0-1,0c-1.4,0-1.7,0.2-1.7,0.2c-0.1,0-0.7,1.4-1.6,3.4c-0.4,1-0.9,2.2-1.4,3.4
		c-0.6,1.4-1.2,2.8-1.7,4.2c1.3,0,2.6,0,3.8,0c0.3-1,0.6-1.9,0.8-2.5c0,0,1.1,0,2.9,0c0.2,0.7,0.5,1.5,0.8,2.5c1.1,0,2.4,0,3.7,0
		c-0.8-2.1-1.7-4.3-2.5-6.3C299.8,819.6,299,817.9,298.5,816.7z M297.1,820.7c0.1,0.2,0.2,0.4,0.3,0.6c0.1,0.3,0.2,0.6,0.4,0.9
		c0.1,0.2,0.1,0.3,0.2,0.5l0,0.1l0,0l0,0l-0.1,0c-0.2,0-0.5,0-0.7,0c-0.4,0-0.8,0.1-1,0.1c-0.1,0-0.1,0-0.2,0c0.1-0.2,0.3-0.5,0.5-1
		c0.2-0.3,0.3-0.7,0.5-1.1L297.1,820.7C297.1,820.7,297.1,820.6,297.1,820.7L297.1,820.7C297.1,820.6,297.1,820.6,297.1,820.7
		L297.1,820.7L297.1,820.7L297.1,820.7z"/>
	<path fill="#262425" d="M321.4,816.7c-0.5,0-0.8,0-1,0c-1.4,0-1.7,0.2-1.7,0.2c-0.1,0-0.7,1.4-1.6,3.4c-0.4,1-0.9,2.2-1.4,3.4
		c-0.6,1.4-1.2,2.8-1.7,4.2c1.3,0,2.6,0,3.8,0c0.3-1,0.6-1.9,0.8-2.5c0,0,1.1,0,2.9,0c0.2,0.7,0.5,1.5,0.8,2.5c1.1,0,2.4,0,3.7,0
		c-0.8-2.1-1.7-4.3-2.5-6.3C322.7,819.6,321.9,817.9,321.4,816.7z M320,820.7c0.1,0.2,0.2,0.4,0.3,0.6c0.1,0.3,0.2,0.6,0.4,0.9
		c0.1,0.2,0.1,0.3,0.2,0.5l0,0.1l0,0l0,0l-0.1,0c-0.2,0-0.5,0-0.7,0c-0.4,0-0.8,0.1-1,0.1c-0.1,0-0.1,0-0.2,0c0.1-0.2,0.3-0.5,0.5-1
		c0.2-0.3,0.3-0.7,0.5-1.1L320,820.7C320,820.7,320,820.6,320,820.7L320,820.7C320,820.6,320,820.6,320,820.7L320,820.7L320,820.7
		L320,820.7z"/>
	<path fill="#262425" d="M311.2,824.2c-0.1-0.1-0.2-0.3-0.3-0.4c0-0.1-0.1-0.1-0.1-0.2c0.1,0,0.1-0.1,0.2-0.1c0.1,0,0.2-0.1,0.3-0.2
		c0.2-0.1,0.3-0.2,0.4-0.4c0.2-0.2,0.3-0.4,0.4-0.5c0.1-0.1,0.4-0.4,0.6-1.1c0.1-0.4,0.2-0.8,0.2-1.3c0-0.3,0-0.5-0.1-0.8
		c0-0.1-0.1-0.3-0.1-0.4c-0.1-0.1-0.2-0.3-0.2-0.4c-0.7-1.2-2.2-1.8-3.7-1.8c-0.7,0-1.5,0-2.2,0c-0.9,0-1.7,0-2.6,0
		c0,2.7,0,5.1,0,6.8c0,0,0,1.7,0,4.6c1,0,2.1,0,3.5,0c0-1.1,0-2.3,0-3.5c0.2,0,0.4,0,0.6,0c0.7,1.2,1.3,2.4,2,3.5c1.3,0,2.6,0,3.8,0
		c-0.7-1-1.3-1.9-1.8-2.7C311.6,824.8,311.4,824.5,311.2,824.2z M308.8,821.6c-0.2,0-0.5,0-0.8,0c-0.2,0-0.3,0-0.5,0l-0.1,0l0,0l0,0
		l0,0l0,0l0-0.1c0-0.2,0-0.3,0-0.5c0-0.3,0-0.6,0-0.8c0,0,0-0.1,0-0.3c0-0.1,0-0.2,0-0.3c0-0.1,0,0,0-0.1l0,0l0,0l0.1,0
		c0.2,0,0.4,0,0.6,0c0.2,0,0.4,0,0.6,0c0.2,0,0.3,0.1,0.5,0.1c0.6,0.3,0.6,1.1,0.5,1.5C309.5,821.3,309.2,821.6,308.8,821.6z"/>
	<g>
		<g>
			<path fill="#262425" d="M370,821.9c0-1.2,0-2.4,0-3.4c0-1.1-0.1-2.1-0.1-2.8c-0.1-1.5-0.2-1.5-0.2-1.5h0c0,0,0,0,0,0
				c0,0-0.3-0.1-0.7-0.1c-0.2,0-0.5,0-0.8,0c-0.4,0-0.5,0-1.3,0c0,1.4-0.1,3.3-0.1,5.2c0,2,0,4,0,5.6c0.9,0,1.8,0,2.4,0
				c0,0,2.2,0,5.5,0c0-0.9,0-1.9,0-2.9C373.1,821.9,371.5,821.9,370,821.9z"/>
			<path fill="#262425" d="M384.9,817.4c0-1.2,0-2.4,0-3.5c-1.1,0-2.2,0-3.2,0c0,1.7,0.1,3.2,0.1,4.3c0.1,2.1,0.1,2.1,0.1,2.1
				s0.1,0.4-0.2,0.9c-0.1,0.3-0.4,0.6-0.8,0.7c-0.4,0.1-0.9,0.1-1.4-0.1c-0.4-0.2-0.7-0.7-0.7-1.3c0-0.6,0-1.3,0-2
				c0-1.5,0-3.1,0-4.7c-1.1,0-2.2,0-3.3,0c0,1.4,0,2.7,0,3.9c0,1.1,0,2,0,2.9c0,0,0,0.2,0.1,0.5c0.1,0.3,0.2,0.8,0.5,1.4
				c0.3,0.6,0.8,1.2,1.6,1.6c0.8,0.5,1.7,0.6,2.7,0.6c1,0,2.1-0.3,3-1c0.9-0.8,1.4-1.9,1.5-3.1c0.1-0.6,0-1.1,0-1.7
				C384.9,818.5,384.9,818,384.9,817.4z"/>
			<path fill="#262425" d="M394.7,816c1.5-1.7,1.4-1.8,1.4-1.8h0c0,0,0,0,0,0c0,0-0.3-0.1-1-0.1c-0.3,0-0.7,0-1.1,0
				c-0.5,0-1,0-1.6,0c-0.4,0.5-0.9,1.1-1.4,1.7c-0.2,0.3-0.5,0.6-0.7,0.9c-0.2,0.2-0.1,0.1-0.2,0.2L390,817l0-0.2c0-0.2,0-0.5,0-0.7
				c0-0.7,0-1.4,0-2.2c-1.1,0-2.2,0-3.3,0c0,3.3,0,6.5,0,8.6c0,0,0,0.5,0,2.3c0.7,0,1.6,0,3.4,0c0-0.9,0-1.9,0-3.4
				c0.1-0.1,0.2-0.2,0.3-0.4c0.7,1.1,1.6,2.4,2.5,3.7c1.3,0,2.7,0,4.1,0c-1.6-2.2-3.3-4.3-4.6-6.1
				C393.3,817.6,394.1,816.7,394.7,816z"/>
			<path fill="#262425" d="M405.4,822c-1.3,0-2.9,0-4.5,0c0-0.4,0-0.8,0-1.2c1.3,0,2.6,0,3.9,0c0-0.9,0-1.9,0-2.7
				c-1.4,0-2.7,0-3.9,0c0-0.5,0-1,0-1.4c0.8,0,1.5,0,2.1,0c2-0.1,2.2-0.2,2.2-0.2v0c0,0,0,0,0,0c0,0,0.1-0.2,0.1-0.6
				c0-0.2,0-0.4,0-0.7c0-0.3,0-0.7,0-1.1c-0.9,0-2,0-3.3-0.1c-1.3,0-2.8,0-4.3-0.1c0,3.7,0,7.8,0,10.9c1.1,0,2.1,0,2.9,0
				c0,0,1.9,0,4.9,0C405.4,824,405.4,823.1,405.4,822z"/>
		</g>
		<g>
			<path fill="#262425" d="M440.9,820.2c-0.3-0.2-1.1-0.8-2.5-1.2c-0.3-0.1-0.7-0.2-1-0.4c-0.2-0.2-0.2-0.5,0.1-0.6
				c0.7-0.3,1.8-0.2,2.6,0.2l0.6,0.3c0.2,0.1,0.5,0.4,0.4,0c0-0.4,0-0.8,0-1.2l0-0.8l0-0.5v-0.2c0-0.1-0.1-0.1-0.2-0.1l-0.3-0.2
				c-1-0.5-2.2-0.7-3.3-0.6c-1.1,0.1-2.2,0.6-2.8,1.4c-0.6,0.9-0.6,1.8-0.6,2.6c0,0,0,0.3,0.2,0.9c0.1,0.3,0.3,0.6,0.6,0.9
				c0.3,0.3,0.7,0.5,1.1,0.8c0.4,0.2,1,0.4,1.5,0.5c0.2,0.1,0.6,0.1,0.8,0.2c0.2,0.1,0.5,0.2,0.5,0.3c0,0,0,0.1,0,0.2
				c0,0.1-0.1,0.1-0.1,0.2c-0.2,0.1-0.5,0.2-0.7,0.2c-0.6,0-1.2-0.1-1.8-0.3c-0.3-0.1-0.5-0.2-0.9-0.5l-0.8-0.6l-0.2-0.1
				c0,0,0,0,0,0v0.1l0,0.1v0.5c0,0.8,0,1.7,0,2.5c0,0.1,0.1,0.1,0.1,0.2l0.2,0.1c0.1,0,0.2,0.1,0.2,0.1c0.2,0.1,0.3,0.2,0.5,0.2
				c0.3,0.1,0.7,0.3,1,0.3c0.7,0.2,1.4,0.2,2,0.2c1.3,0,2.6-0.7,3.2-1.7c0.3-0.5,0.4-1,0.4-1.5c0-0.5-0.1-0.9-0.2-1.2
				C441.5,820.8,441.1,820.4,440.9,820.2z"/>
			<path fill="#262425" d="M449.3,815.1c-0.4,0-0.7,0-1,0c-1.3,0-1.6,0.2-1.7,0.2c-0.1,0-0.7,1.3-1.5,3.2c-0.4,1-0.9,2.1-1.4,3.2
				c-0.5,1.3-1.1,2.7-1.6,4c1.3,0,2.5,0,3.6,0c0.3-0.9,0.6-1.8,0.8-2.4c0,0,1.1,0,2.8,0c0.2,0.7,0.5,1.5,0.8,2.4c1.1,0,2.3,0,3.6,0
				c-0.8-2-1.7-4.1-2.4-6C450.5,818,449.8,816.3,449.3,815.1z M448,819c0.1,0.2,0.2,0.4,0.3,0.6c0.1,0.3,0.2,0.6,0.4,0.9
				c0.1,0.2,0.1,0.3,0.2,0.5l0,0.1l0,0l0,0l-0.1,0c-0.2,0-0.4,0-0.6,0c-0.4,0-0.7,0.1-1,0.1c-0.1,0-0.1,0-0.2,0
				c0.1-0.2,0.3-0.5,0.5-0.9c0.2-0.3,0.3-0.7,0.5-1.1L448,819C447.9,819,448,818.9,448,819L448,819C448,818.9,448,818.9,448,819
				L448,819L448,819L448,819z"/>
			<path fill="#262425" d="M471.3,815.1c-0.4,0-0.7,0-1,0c-1.3,0-1.6,0.2-1.7,0.2c-0.1,0-0.7,1.3-1.5,3.2c-0.4,1-0.9,2.1-1.4,3.2
				c-0.5,1.3-1.1,2.7-1.6,4c1.3,0,2.5,0,3.6,0c0.3-0.9,0.6-1.8,0.8-2.4c0,0,1.1,0,2.8,0c0.2,0.7,0.5,1.5,0.8,2.4c1.1,0,2.3,0,3.6,0
				c-0.8-2-1.7-4.1-2.4-6C472.4,818,471.8,816.3,471.3,815.1z M469.9,819c0.1,0.2,0.2,0.4,0.3,0.6c0.1,0.3,0.2,0.6,0.4,0.9
				c0.1,0.2,0.1,0.3,0.2,0.5l0,0.1l0,0l0,0l-0.1,0c-0.2,0-0.4,0-0.6,0c-0.4,0-0.7,0.1-1,0.1c-0.1,0-0.1,0-0.2,0
				c0.1-0.2,0.3-0.5,0.5-0.9c0.2-0.3,0.3-0.7,0.5-1.1L469.9,819C469.9,819,469.9,818.9,469.9,819L469.9,819
				C469.9,818.9,469.9,818.9,469.9,819L469.9,819L469.9,819L469.9,819z"/>
			<path fill="#262425" d="M461.5,822.3c-0.1-0.1-0.2-0.2-0.2-0.4c0-0.1-0.1-0.1-0.1-0.2c0.1,0,0.1-0.1,0.2-0.1
				c0.1,0,0.2-0.1,0.3-0.2c0.2-0.1,0.3-0.2,0.4-0.3c0.2-0.2,0.3-0.4,0.4-0.5c0.1-0.1,0.4-0.4,0.6-1.1c0.1-0.3,0.2-0.8,0.2-1.3
				c0-0.2,0-0.5-0.1-0.8c0-0.1-0.1-0.3-0.1-0.4c-0.1-0.1-0.1-0.3-0.2-0.4c-0.7-1.1-2.2-1.7-3.6-1.7c-0.7,0-1.4,0-2.1,0
				c-0.8,0-1.7,0-2.5,0c0,2.5,0,4.9,0,6.5c0,0,0,1.7,0,4.4c0.9,0,2,0,3.3,0c0-1,0-2.2,0-3.4c0.2,0,0.4,0,0.6,0
				c0.6,1.1,1.3,2.3,1.9,3.3c1.3,0,2.5,0,3.6,0c-0.6-0.9-1.2-1.8-1.7-2.6C461.9,822.9,461.7,822.6,461.5,822.3z M459.1,819.9
				c-0.2,0-0.5,0-0.8,0c-0.1,0-0.3,0-0.5,0l-0.1,0l0,0l0,0l0,0l0,0l0-0.1c0-0.2,0-0.3,0-0.5c0-0.3,0-0.5,0-0.8c0,0,0-0.1,0-0.3
				c0-0.1,0-0.2,0-0.3c0-0.1,0,0,0,0l0,0l0,0l0.1,0c0.2,0,0.4,0,0.6,0c0.2,0,0.4,0,0.6,0c0.2,0,0.3,0.1,0.4,0.1
				c0.6,0.3,0.6,1.1,0.5,1.4C459.9,819.6,459.5,819.9,459.1,819.9z"/>
		</g>
		<g>
			<path fill="#FEC900" d="M417,824.3c2.3-0.1,4.4-1.7,4.4-4.3c0-2.7-1.8-4.3-4.4-4.3c-2.7,0-4.3,1.3-4.1,4.2
				C412.9,822.1,414.2,824.3,417,824.3z"/>
			<path fill="#1BD6B7" d="M423.2,815.4c-2.6-0.3-4.7,2-4.8,4.3c0.5,2.8,2.1,4.3,4.6,4.4c2.5,0.1,4.3-1.9,4.6-4
				C427.6,817.5,425.7,815.7,423.2,815.4z"/>
		</g>
	</g>
	<g>
		<path opacity="0.8" fill="#FEC900" d="M571,32.9c7.8-0.4,15.2-5.9,14.9-14.8c0.1-9.3-6.1-14.8-14.9-14.8
			c-9,0.1-14.5,4.6-13.8,14.3C557,25.3,561.3,32.7,571,32.9z"/>
		<path opacity="0.8" fill="#1BD6B7" d="M591.9,2c-8.9-1.2-16.1,6.8-16.3,15c0,9.3,7.1,14.7,15.8,15.3c8.4,0.3,15.6-6.1,15.6-13.8
			C607,9.3,600.6,3.3,591.9,2z"/>
	</g>
	<g>
		<path fill="#01BC9D" d="M580.6,164.1l-2.3,4.4h1.5v5.4H575v-6.3l4.4-4.6L580.6,164.1z M589.6,164.1l-2.3,4.4h1.5v5.4H584v-6.3
			l4.4-4.6L589.6,164.1z"/>
	</g>
	<g>
		<path fill="#01BC9D" d="M584,345.7l2.3-4.4h-1.5v-5.4h4.7v6.3l-4.4,4.6L584,345.7z M575,345.7l2.3-4.4h-1.5v-5.4h4.7v6.3l-4.4,4.6
			L575,345.7z"/>
	</g>
	<path fill="#01BC9D" d="M584.8,491.7c0.2-0.2,0.2-0.6,0-0.8l-4-3.7c-0.2-0.2-0.2-0.6,0-0.8l4-3.7c0.2-0.2,0.2-0.6,0-0.8l0,0
		c-0.2-0.2-0.6-0.2-0.8,0l-4.8,4.4c-0.2,0.2-0.2,0.6,0,0.8l4.8,4.4C584.2,492,584.6,492,584.8,491.7L584.8,491.7z"/>
	<path fill="#01BC9D" d="M579.2,815.1c-0.2,0.2-0.2,0.6,0,0.8l4,3.7c0.2,0.2,0.2,0.6,0,0.8l-4,3.7c-0.2,0.2-0.2,0.6,0,0.8l0,0
		c0.2,0.2,0.6,0.2,0.8,0l4.8-4.4c0.2-0.2,0.2-0.6,0-0.8l-4.8-4.4C579.8,814.8,579.4,814.8,579.2,815.1L579.2,815.1z"/>
	<path fill="#00A384" d="M744.8,491.7c0.2-0.2,0.2-0.6,0-0.8l-4-3.7c-0.2-0.2-0.2-0.6,0-0.8l4-3.7c0.2-0.2,0.2-0.6,0-0.8l0,0
		c-0.2-0.2-0.6-0.2-0.8,0l-4.8,4.4c-0.2,0.2-0.2,0.6,0,0.8l4.8,4.4C744.2,492,744.6,492,744.8,491.7L744.8,491.7z"/>
	<path fill="#00A384" d="M739.2,815.1c-0.2,0.2-0.2,0.6,0,0.8l4,3.7c0.2,0.2,0.2,0.6,0,0.8l-4,3.7c-0.2,0.2-0.2,0.6,0,0.8l0,0
		c0.2,0.2,0.6,0.2,0.8,0l4.8-4.4c0.2-0.2,0.2-0.6,0-0.8l-4.8-4.4C739.8,814.8,739.4,814.8,739.2,815.1L739.2,815.1z"/>
	<g>
		<path fill="#01BC9D" d="M742,175.9l-0.3-0.2c-0.8-0.6-7.7-6.6-7.7-10c0-2.6,2.1-4.7,4.7-4.7c1.2,0,2.4,0.5,3.3,1.4
			c0.9-0.9,2.1-1.4,3.3-1.4c2.6,0,4.7,2.1,4.7,4.7c0,3.4-6.9,9.4-7.7,10L742,175.9z M738.7,161.9c-2,0-3.7,1.7-3.7,3.7
			c0,2.4,4.8,7.2,7,9c2.2-1.8,7-6.6,7-9c0-2-1.7-3.7-3.7-3.7c-1.2,0-2.2,0.6-2.9,1.5L742,164l-0.4-0.6
			C740.9,162.5,739.8,161.9,738.7,161.9z"/>
	</g>
	<path fill="#01BC9D" d="M571,659.9l10.4-8v4.9l0.5,0c2,0.1,3.7,0.5,5.2,1.2c1.4,0.7,2.6,1.5,3.4,2.6c0.9,1.1,1.5,2.4,1.9,3.7
		c0.2,0.8,0.4,1.6,0.6,2.5c-0.3-0.3-0.6-0.7-0.9-1c-0.9-0.8-1.9-1.5-3-2c-1.1-0.5-2.3-0.8-3.4-1.1c-1.2-0.2-2.4-0.4-3.7-0.4l-0.5,0
		v5.5L571,659.9z"/>
	<path fill="#00A384" d="M731,659.9l10.4-8v4.9l0.5,0c2,0.1,3.7,0.5,5.2,1.2c1.4,0.7,2.6,1.5,3.4,2.6c0.9,1.1,1.5,2.4,1.9,3.7
		c0.2,0.8,0.4,1.6,0.6,2.5c-0.3-0.3-0.6-0.7-0.9-1c-0.9-0.8-1.9-1.5-3-2c-1.1-0.5-2.3-0.8-3.4-1.1c-1.2-0.2-2.4-0.4-3.7-0.4l-0.5,0
		v5.5L731,659.9z"/>
	<g>
		<circle opacity="0.3" fill="#333333" enable-background="new    " cx="902" cy="19.9" r="25"/>
		<path fill="#FAFAFA" d="M897.8,5.4c-0.6,0.6-0.6,1.7,0,2.4l11,11c0.6,0.6,0.6,1.7,0,2.4l-11,11c-0.6,0.6-0.6,1.7,0,2.4l0,0
			c0.6,0.6,1.7,0.6,2.4,0l13.3-13.3c0.6-0.6,0.6-1.7,0-2.4L900.2,5.4C899.5,4.7,898.5,4.7,897.8,5.4L897.8,5.4z"/>
	</g>
	<g>
		<circle opacity="0.3" fill="#333333" enable-background="new    " cx="902" cy="168.9" r="25"/>
		<path fill="#FAFAFA" d="M906.2,183.4c0.6-0.6,0.6-1.7,0-2.4l-11-11c-0.6-0.6-0.6-1.7,0-2.4l11-11c0.6-0.6,0.6-1.7,0-2.4l0,0
			c-0.6-0.6-1.7-0.6-2.4,0l-13.3,13.3c-0.6,0.6-0.6,1.7,0,2.4l13.3,13.3C904.5,184.1,905.5,184.1,906.2,183.4L906.2,183.4z"/>
	</g>
	<g>
		<path fill="#01BC9D" d="M901.5,363.9c-0.4,0-0.9-0.1-1.3-0.3c-1.5-0.7-2.1-2.5-1.4-4l7-14.7H893c-1,0-2-0.5-2.5-1.4
			c-0.6-0.9-0.6-1.9-0.2-2.9l8.5-19c0.7-1.5,2.5-2.2,4-1.5c1.5,0.7,2.2,2.5,1.5,4l-6.6,14.8h12.9c1,0,2,0.5,2.5,1.4
			c0.5,0.9,0.6,2,0.2,2.9l-9,19C903.7,363.3,902.6,363.9,901.5,363.9z"/>
	</g>
	<path id="_x31_00_x25__-_Ratina_1_" fill="#666666" d="M744.1,340.8h-3.5l1.4-3.7c0.2-0.5,0-1-0.5-1.2c-0.5-0.2-1,0-1.2,0.5l-2,4.9
		c-0.1,0.2-0.1,0.5,0,0.7c0.1,0.3,0.4,0.6,0.8,0.6h3.8l-2.3,4c-0.2,0.5,0,1,0.4,1.2s0.9,0,1.1-0.5c0,0,2.8-5.1,2.8-5.7
		C745,341.2,744.6,340.8,744.1,340.8z"/>
	<path fill="#00A384" d="M902,484.9c-2.2,0-4,1.8-4,4s1.8,4,4,4c2.2,0,4-1.8,4-4S904.2,484.9,902,484.9z M902,490.9
		c-1.1,0-2-0.9-2-2c0-1.1,0.9-2,2-2c1.1,0,2,0.9,2,2C904,490,903.1,490.9,902,490.9z"/>
	<circle opacity="0.3" fill="#333333" enable-background="new    " cx="902" cy="659.9" r="25"/>
	<path fill="#FAFAFA" d="M906.2,665.5l4.7-8.2c1-1.7,1-2.6,0.2-4c-0.8-1.5-2.4-1.4-4.4-1.4h-9.4c-1.9,0-3.5-0.1-4.4,1.4
		c-0.8,1.5-0.8,2.8,0.2,4.5l4.7,8c1,1.7,2.5,2.5,4.2,2.5C903.7,668.3,905.2,667.2,906.2,665.5z M900.5,664l-4.7-7.3
		c-0.8-1.5-0.2-1.8,1.5-1.8h9.4c1.7,0,2.4,0.3,1.5,1.8l-4.7,7.7C902.7,665.9,901.3,665.5,900.5,664z"/>
	<polygon fill="#EA483E" points="901.5,821.6 897.2,825.9 895,823.7 899.3,819.4 895,815.1 897.2,812.9 901.5,817.2 905.8,812.9 
		908,815.1 903.7,819.4 908,823.7 905.8,825.9 	"/>
	<path fill="#01BC9D" d="M1054,20.3l2.1-2.1l3.6,3.4l8.2-8.7l2.1,2.1l-10.3,10.9L1054,20.3z"/>
	<path fill="#333333" d="M1065.5,172.1c-0.7-0.6-0.7-1.7,0-2.4l11.1-11c0.7-0.6,0.7-1.7,0-2.4c-0.7-0.6-1.7-0.6-2.4,0l-12.1,12.1
		l-12.1-12.1c-0.7-0.6-1.7-0.6-2.4,0c-0.6,0.6-0.6,1.7,0,2.4l11.1,11c0.7,0.6,0.7,1.7,0,2.4l-11.1,11c-0.6,0.6-0.6,1.7,0,2.4
		c0.7,0.6,1.7,0.6,2.4,0l12.1-12.1l12.1,12.1c0.7,0.6,1.7,0.6,2.4,0c0.7-0.6,0.7-1.7,0-2.4L1065.5,172.1z"/>
	<g>
		<g>
			<g opacity="0.15">
				<path fill="#F4F4F4" d="M268.7,794.3c-0.5,0-4.8,0.1-8.9,0c-5.1-0.1-7.8-0.1-9.2,0c-0.7,0-1.7,0.2-1.8,1
					c0.1,0.3,0.4,4.8,0.7,5.6c1.5-0.4,5.7-1.8,10.2-1.8c4.4,0.1,9.4,1.4,9.8,1.5c0-1.1,0.2-4.9,0.3-5.3
					C269.8,794.6,269.5,794.2,268.7,794.3z"/>
			</g>
			<g>
				<path fill="#262425" d="M249.6,801.3c-0.1,0-0.3-0.1-0.3-0.2c-0.2-0.6-0.4-2.7-0.6-4.7c-0.1-0.5-0.1-0.9-0.1-1c0,0,0-0.1,0-0.1
					c0.1-0.8,0.8-1.3,2.1-1.3c1.4-0.1,4.1-0.1,9.2,0c2.7,0,5.5,0,7.2,0c0.9,0,1.5,0,1.7,0h0c1,0,1.5,0.5,1.5,1.4
					c-0.1,0.5-0.3,4.1-0.3,5.3c0,0.1,0,0.2-0.1,0.3c-0.1,0.1-0.2,0.1-0.3,0.1c-0.1,0-0.2,0-0.5-0.1c-1.4-0.3-5.6-1.3-9.2-1.4
					c-3.9,0-7.7,1.1-9.5,1.6C250,801.1,249.8,801.2,249.6,801.3C249.6,801.2,249.6,801.3,249.6,801.3z M249.2,795.3
					c0,0.1,0.1,0.5,0.1,1c0.1,1.2,0.3,3.3,0.5,4.2c0.1,0,0.2-0.1,0.3-0.1c1.8-0.5,5.6-1.6,9.7-1.6c3.8,0,8,1.1,9.4,1.4
					c0,0,0,0,0.1,0c0.1-1.4,0.2-4.5,0.3-4.9c0-0.4-0.2-0.6-0.8-0.6l-0.2,0c-0.3,0-0.8,0-1.4,0c-1.7,0-4.5,0.1-7.2,0
					c-5.1-0.1-7.8-0.1-9.2,0C250.2,794.6,249.3,794.7,249.2,795.3z"/>
			</g>
		</g>
		<g>
			<g opacity="0.1">
				<g>
					<path fill="#F4F4F4" d="M271.5,797.7c-0.2,0.2,0.2,4.8-0.1,5.1c-0.3,0.2-0.6-0.1-1.4-0.3c-2-0.6-5.8-1.7-10.1-1.7
						c-4.4,0-8.1,1.2-10.1,1.7c-0.8,0.3-1.3,0.4-1.6,0.4c-0.3,0-0.6-0.2-0.6-0.4c0,0,0.2-4.4,0-4.7c-0.1-0.2-2.1-0.1-2.1,0.6
						c0,1.2,0.1,2.8,0.1,7.1c0,4.2,0.1,9.6-0.2,15.6c0.2,5.5,0.3,11.1,0,15.6c0,4.1,0.1,6.8,0.1,7c0,0.6,0.9,1.7,2,1.7
						c0.6,0,6.2,0.3,12.2,0.2c6.6,0.1,12.5,0.4,12.4,0.3c1-0.1,0.8-0.7,0.9-2.4c0.1-1.5,0-2.5,0-6.5c-0.1-4.7,0.2-10.2,0-15.9
						c-0.1-5.6-0.1-11.3-0.1-15.5c0-4.2,0.2-7.4,0.1-7.6C272.8,797.1,271.7,797.4,271.5,797.7z"/>
				</g>
			</g>
			<g>
				<path fill="#262425" d="M271.6,846.2C271.6,846.2,271.6,846.2,271.6,846.2c-0.7,0-2,0-3.7-0.1c-2.2-0.1-5.2-0.2-8.3-0.2
					c-5.2,0.1-10.3-0.1-11.8-0.2l-0.4,0c-1.2,0-2.3-1.3-2.3-2.1c0-0.1,0-0.6,0-1.2c0-1.2-0.1-3.3-0.1-5.8c0.3-4.6,0.1-10.2,0-15.6
					c0.2-4.9,0.2-9.2,0.2-13c0-0.9,0-1.8,0-2.6c0-4.4,0-6-0.1-7c0.1-1,1.8-1,2-1c0.5,0,0.7,0.1,0.8,0.2c0.1,0.2,0.2,0.6,0,4.4
					c0,0.2,0,0.4,0,0.4l0,0c0,0,0.1,0.1,0.3,0.1c0.2,0,0.6-0.1,1.5-0.4c0.3-0.1,0.6-0.2,0.9-0.2c2.2-0.6,5.5-1.5,9.3-1.5
					c4.2,0,7.7,1,9.9,1.7l0.3,0.1c0.3,0.1,0.5,0.2,0.6,0.2c0.2,0.1,0.4,0.2,0.5,0.2c0.1-0.2,0-1.9,0-2.9c-0.1-1.7,0-1.9,0.1-2.1
					c0.1-0.3,0.6-0.4,1.1-0.4c0.5,0,0.9,0.2,1,0.6c0.1,0.1,0.1,0.3,0,2.1c0,1.4-0.1,3.3-0.1,5.6l0,1.3c0,4.1,0,9.1,0.1,14.2
					c0.1,3.3,0,6.5,0,9.5c0,2.3-0.1,4.4,0,6.4c0,1.9,0,3.1,0,4c0,1,0,1.7,0,2.5c0,0.3,0,0.7,0,0.9c0,1-0.1,1.7-1.1,1.8
					C272,846.2,271.8,846.2,271.6,846.2z M259.6,845.2c3.1,0.1,6.1,0.2,8.3,0.2c1.7,0.1,3.1,0.1,3.7,0.1h0c0,0,0,0,0.1,0l0.3,0
					c0.5,0,0.5-0.1,0.6-1.2c0-0.3,0-0.6,0-0.9c0.1-0.8,0-1.4,0-2.4c0-0.9,0-2.1,0-4c0-2,0-4.1,0-6.4c0-3.1,0.1-6.2,0-9.5
					c-0.1-5.1-0.1-10.1-0.1-14.2v-1.3c0-2.3,0.1-4.3,0.1-5.6c0-1,0.1-1.8,0-1.9c0-0.1-0.2-0.2-0.4-0.2c-0.2,0-0.4,0.1-0.5,0.1
					c0,0.2,0,1,0,1.7c0.1,2.7,0,3.3-0.3,3.5c-0.4,0.2-0.7,0.1-1.2-0.1c-0.2-0.1-0.3-0.1-0.6-0.2l-0.3-0.1c-2.1-0.6-5.6-1.6-9.7-1.6
					c-3.7,0-7,0.9-9.2,1.5c-0.3,0.1-0.6,0.2-0.9,0.2c-0.5,0.2-1.3,0.4-1.7,0.4c-0.5,0-0.9-0.3-0.9-0.7h0c0-0.1,0-0.2,0-0.5
					c0.1-2.2,0.1-3.5,0.1-3.9c0,0-0.1,0-0.2,0c-0.8,0-1.3,0.2-1.3,0.4c0,1,0.1,2.6,0.1,7c0,0.8,0,1.7,0,2.6c0,3.8,0,8.2-0.2,13
					c0.2,5.4,0.3,11,0,15.6c0,2.6,0,4.6,0.1,5.8c0,1,0,1.2,0,1.3c0,0.3,0.7,1.3,1.6,1.3l0.4,0C249.3,845.1,254.3,845.3,259.6,845.2z
					"/>
			</g>
		</g>
		<g>
			<path fill="#262425" d="M259.8,835.4L259.8,835.4l-0.2,0c-2.9-0.2-4.7-1.9-5.3-5c0.1-2.7,2.4-5.4,5.5-5c3,0.5,5,2.6,5,5.4
				C264.6,833.1,262.6,835.4,259.8,835.4z M259.3,826c-2.5,0-4.2,2.2-4.2,4.3c0.5,2.7,2.1,4.2,4.6,4.4l0.1,0c2.5,0,4.2-2,4.4-4
				c0-2.5-1.7-4.3-4.4-4.7C259.6,826,259.4,826,259.3,826z"/>
		</g>
		<g>
			<path fill="#262425" d="M259.8,820.4L259.8,820.4l-0.2,0c-2.9-0.2-4.7-1.9-5.3-5c0.1-2.7,2.4-5.4,5.5-5c3,0.5,5,2.6,5,5.4
				C264.6,818.1,262.6,820.4,259.8,820.4z M259.3,811c-2.5,0-4.2,2.2-4.2,4.3c0.5,2.7,2.1,4.2,4.6,4.4l0.1,0c2.5,0,4.2-2,4.4-4
				c0-2.5-1.7-4.3-4.4-4.7C259.6,811,259.4,811,259.3,811z"/>
		</g>
		<path fill="#FEC900" d="M258.9,818.9c2.4-0.1,4.8-1.8,4.7-4.6c0-2.9-1.9-4.6-4.7-4.6c-2.8,0-4.6,1.4-4.3,4.4
			C254.6,816.6,255.9,818.9,258.9,818.9z"/>
		<path fill="#1BD6B7" d="M260.5,826.3c-2.8-0.4-5,2.1-5.1,4.6c0.5,3,2.2,4.6,4.9,4.8c2.6,0.1,4.6-2,4.9-4.3
			C265.2,828.6,263.2,826.7,260.5,826.3z"/>
		<g>
			<path fill="#262425" d="M261.1,843L261.1,843c-0.3,0-0.6,0-0.9,0c-5.5-0.2-11.9-1.2-12.1-2.1c-0.1-0.2,0-0.6,0.1-1.2
				c0.2-0.9,0.5-2.4,0.3-4.2c-0.2-2.6-0.2-5.4-0.2-8.6c0-1.2,0-2.4,0-3.6c0-2.5,0-4.8,0-6.8c0-2,0-3.8,0-5.5c0-1-0.1-1.9-0.1-2.6
				c-0.1-2.2-0.1-2.9,0.1-3.2c0.5-0.8,5.9-2.1,11.6-2.1c6,0.1,10.5,1.7,10.9,2.5l0,0.1c0,0,0.1,2.1,0.1,5.4c0,0.9,0,2-0.1,3.1
				c-0.1,2.9-0.2,6.1,0.1,9.5c0.2,2.6,0,4.7-0.2,6.7c-0.2,1.6-0.3,3.1-0.3,4.8c0.1,1.4,0.2,2.5,0.2,3.3c0.1,1.6,0.2,2.1-0.1,2.3
				C270.2,841.3,265.9,843,261.1,843z M248.8,840.6c0.6,0.4,5.1,1.5,11.5,1.7c0.3,0,0.6,0,0.9,0c4.9,0,8.7-1.7,9-2.1
				c0.1-0.2,0-0.9-0.1-1.8c-0.1-0.8-0.2-1.9-0.2-3.4c0-1.7,0.1-3.3,0.3-4.9c0.2-2,0.4-4.1,0.2-6.6c-0.3-3.4-0.2-6.7-0.1-9.6
				c0-1.1,0.1-2.2,0.1-3.1c0-2.9-0.1-4.8-0.1-5.2c-0.5-0.5-4.3-2-10.3-2.1c-6.2,0-10.7,1.4-11.1,1.8c-0.1,0.2-0.1,1.4,0,2.8
				c0,0.7,0.1,1.6,0.1,2.6c0,1.7,0,3.6,0,5.6c0,2,0,4.3,0,6.7c0,1.3,0,2.5,0,3.6c0,3.2,0.1,6,0.2,8.6c0.2,1.9-0.1,3.4-0.3,4.4
				C248.8,840.1,248.8,840.4,248.8,840.6z M259.7,839.6c-5.3-0.3-9.5-4.6-9.7-9.9c-0.2-1.8,0.7-3.4,1.1-4c0.1-0.3,0.4-0.5,0.6-0.8
				c0.6-0.6,1.3-1.3,1.3-2.7c-0.1-0.9-0.3-1.3-0.7-1.8c-0.2-0.3-0.4-0.6-0.7-1.1c-0.6-1.1-0.8-3.3-1-4.5c0-0.3-0.1-0.5-0.1-0.7
				c-0.1-0.7,0-3.1,1.8-5c1.6-1.8,4.1-2.8,7.3-2.8h0c4.9,0,8.9,4,9,9c0,1.4-0.5,2.3-1,3.2l-0.2,0.4c-0.5,0.8-1,1.7-1,3.3
				c-0.1,1.2,0.8,2.6,1.5,3.7c0.7,1.1,1.1,2.3,1,3.7c0.2,2.5-0.7,4.9-2.4,6.8C264.8,838.4,262.3,839.5,259.7,839.6z M259.6,806.7
				l0,0.3c-3,0-5.3,0.9-6.8,2.6c-1.6,1.8-1.7,4-1.6,4.5c0,0.2,0,0.4,0.1,0.7c0.1,1.2,0.4,3.3,0.9,4.3c0.2,0.4,0.4,0.7,0.6,1
				c0.4,0.5,0.8,1,0.9,2.1c0,1.8-0.8,2.6-1.4,3.2c-0.2,0.2-0.4,0.4-0.5,0.6c-0.4,0.6-1.1,2-1,3.6c0.2,5,4.1,8.9,9,9.2
				c2.5,0,4.7-1.1,6.4-2.9c1.6-1.8,2.4-4,2.2-6.4c0.1-1.4-0.2-2.4-0.9-3.3c-0.7-1.1-1.7-2.7-1.6-4.1c-0.1-1.8,0.5-2.8,1-3.6l0.2-0.4
				c0.4-0.9,0.9-1.7,0.9-2.9c-0.1-4.6-3.8-8.3-8.3-8.3L259.6,806.7L259.6,806.7z"/>
		</g>
		<path fill="none" stroke="#262425" stroke-width="0.6848" stroke-miterlimit="10" d="M276.3,827.2c-0.2,0.2-1.9,0.2-2.2,0
			c-0.3-0.2-0.2-7.9,0.1-8.2c0.3-0.3,1.9-0.2,2,0S276.5,827,276.3,827.2z"/>
		<path fill="none" stroke="#262425" stroke-width="0.6848" stroke-miterlimit="10" d="M276.4,820c-1.1-0.1-1.8-0.1-3.4,0.2"/>
		<path fill="none" stroke="#262425" stroke-width="0.6848" stroke-miterlimit="10" d="M276.5,821.6c-0.5-0.3-1.9-0.3-2.4,0.1"/>
		<line fill="none" stroke="#262425" stroke-width="0.6848" stroke-miterlimit="10" x1="276.5" y1="823.2" x2="274" y2="823"/>
		<path fill="none" stroke="#262425" stroke-width="0.6848" stroke-miterlimit="10" d="M276.4,824.3c-0.4,0.5-1.8,0.5-2.3,0.3"/>
		<path fill="none" stroke="#262425" stroke-width="0.6848" stroke-miterlimit="10" d="M276.4,825.9c-0.4,0.2-2.9,0-3.4,0"/>
	</g>
	<circle fill="#01BC9D" cx="742" cy="19.9" r="2"/>
	
		<linearGradient id="SVGID_1_" gradientUnits="userSpaceOnUse" x1="1062" y1="502.78" x2="1062" y2="492.78" gradientTransform="matrix(1 0 0 -1 0 837.67)">
		<stop  offset="0" style="stop-color:#00A384"/>
		<stop  offset="1" style="stop-color:#01BC9D"/>
	</linearGradient>
	<circle fill="url(#SVGID_1_)" cx="1062" cy="339.9" r="5"/>
	<rect x="1141" y="898.9" opacity="0.25" fill="#EB212E" enable-background="new    " width="1" height="1"/>
	<rect x="182" y="-60.1" opacity="0.25" fill="#EB212E" enable-background="new    " width="1" height="1"/>
	<g>
		<path fill="#FFFFFF" d="M1062,505.4c-3,0-5.5-2.5-5.5-5.5s2.5-5.5,5.5-5.5s5.5,2.5,5.5,5.5S1065,505.4,1062,505.4z"/>
		<path fill="#E2E2E1" d="M1062,494.9c2.8,0,5,2.2,5,5s-2.2,5-5,5s-5-2.2-5-5S1059.2,494.9,1062,494.9 M1062,493.9c-3.3,0-6,2.7-6,6
			s2.7,6,6,6s6-2.7,6-6S1065.3,493.9,1062,493.9L1062,493.9z"/>
	</g>
	
		<linearGradient id="SVGID_2_" gradientUnits="userSpaceOnUse" x1="1062" y1="182.769" x2="1062" y2="172.769" gradientTransform="matrix(1 0 0 -1 0 837.67)">
		<stop  offset="0" style="stop-color:#CBC9C9"/>
		<stop  offset="1" style="stop-color:#EEEEEE"/>
	</linearGradient>
	<circle fill="url(#SVGID_2_)" cx="1062" cy="659.9" r="5"/>
	<g>
		<rect x="1052" y="810.9" fill="#333333" width="20" height="4"/>
		<rect x="1052" y="817.9" fill="#333333" width="20" height="4"/>
		<rect x="1052" y="824.9" fill="#333333" width="20" height="4"/>
	</g>
</g>
</svg>
