<?xml version="1.0" encoding="utf-8"?>
<!-- Generator: Adobe Illustrator 16.0.0, SVG Export Plug-In . SVG Version: 6.00 Build 0)  -->
<!DOCTYPE svg PUBLIC "-//W3C//DTD SVG 1.1//EN" "http://www.w3.org/Graphics/SVG/1.1/DTD/svg11.dtd">
<svg version="1.1" id="Layer_1" xmlns="http://www.w3.org/2000/svg" xmlns:xlink="http://www.w3.org/1999/xlink" x="0px" y="0px"
	 width="485px" height="922px" viewBox="0 0 485 922" enable-background="new 0 0 485 922" xml:space="preserve">
<g id="bg" display="none">
	<rect x="-445.496" y="770.5" display="inline" fill="#606060" width="1201" height="2480"/>
</g>
<g id="Icons">
	<rect x="73.25" y="34.654" opacity="0.25" fill="#EB212E" enable-background="new    " width="1" height="1"/>
	<path fill="#A9A39D" d="M233.751,199.154c19.851,0,36,16.148,36,35.999s-16.149,35.999-36,35.999c-19.852,0-36-16.148-36-35.999
		S213.899,199.154,233.751,199.154 M233.751,195.154c-22.092,0-40,17.908-40,39.999c0,22.091,17.908,39.999,40,39.999
		c22.091,0,40-17.908,40-39.999C273.751,213.062,255.842,195.154,233.751,195.154L233.751,195.154z"/>
	<g>
		<g>
			<path fill="#A9A39D" d="M244.659,236.428c-0.045-5.054,4.139-7.513,4.33-7.627c-2.369-3.454-6.041-3.929-7.33-3.964
				c-3.086-0.323-6.076,1.848-7.648,1.848c-1.602,0-4.021-1.815-6.629-1.763c-3.354,0.054-6.494,1.995-8.217,5.012
				c-3.551,6.149-0.901,15.188,2.502,20.162c1.701,2.434,3.691,5.153,6.295,5.055c2.549-0.105,3.501-1.623,6.576-1.623
				c3.047,0,3.938,1.623,6.597,1.563c2.733-0.047,4.457-2.444,6.098-4.901c1.97-2.793,2.761-5.543,2.791-5.683
				C249.96,244.486,244.712,242.486,244.659,236.428z"/>
			<path fill="#A9A39D" d="M239.643,221.565c1.371-1.713,2.309-4.044,2.049-6.41c-1.984,0.088-4.465,1.371-5.894,3.047
				c-1.264,1.479-2.393,3.899-2.102,6.176C235.926,224.543,238.212,223.254,239.643,221.565z"/>
		</g>
	</g>
	<path fill="#A9A39D" d="M73.75,199.153c19.85,0,36,16.149,36,36s-16.15,36.001-36,36.001c-19.852,0-36-16.15-36-36.001
		S53.898,199.153,73.75,199.153 M73.75,195.153c-22.092,0-40,17.909-40,40c0,22.091,17.908,40.001,40,40.001
		c22.09,0,40-17.91,40-40.001C113.75,213.062,95.84,195.153,73.75,195.153L73.75,195.153z"/>
	<g>
		<path fill="#A9A39D" d="M66.184,223.363c0-1.419-0.869-3.21-4.506-3.21c-1.498,0-5.609,0-5.609,0l-1.584,7.368
			c0,0,3.023,0,5.832,0C64.883,227.522,66.184,225.364,66.184,223.363L66.184,223.363z"/>
		<path fill="#A9A39D" d="M81.276,223.363c0-1.419-0.865-3.21-4.506-3.21c-1.49,0-5.6,0-5.6,0l-1.592,7.368c0,0,3.023,0,5.834,0
			C79.979,227.522,81.276,225.364,81.276,223.363L81.276,223.363z"/>
		<path fill="#A9A39D" d="M64.161,234.448c0-1.418-0.869-3.2-4.508-3.2c-1.49,0-5.603,0-5.603,0l-1.594,7.356c0,0,3.028,0,5.845,0
			C62.858,238.605,64.161,236.448,64.161,234.448L64.161,234.448z"/>
		<path fill="#A9A39D" d="M79.252,234.448c0-1.418-0.866-3.2-4.501-3.2c-1.499,0-5.608,0-5.608,0l-1.59,7.356c0,0,3.027,0,5.834,0
			C77.952,238.605,79.252,236.448,79.252,234.448L79.252,234.448z"/>
		<path fill="#A9A39D" d="M95.043,229.953c0-1.417-0.863-3.21-4.502-3.21c-1.499,0-5.604,0-5.604,0l-1.596,7.37c0,0,3.027,0,5.836,0
			C93.745,234.113,95.043,231.955,95.043,229.953L95.043,229.953z"/>
		<path fill="#A9A39D" d="M92.87,241.499c0-1.414-0.867-3.207-4.506-3.207c-1.492,0-5.605,0-5.605,0l-1.588,7.365
			c0,0,3.029,0,5.838,0C91.57,245.657,92.87,243.501,92.87,241.499L92.87,241.499z"/>
		<path fill="#A9A39D" d="M77.08,245.991c0-1.414-0.861-3.209-4.496-3.209c-1.5,0-5.609,0-5.609,0l-1.592,7.371c0,0,3.033,0,5.848,0
			C75.788,250.154,77.08,247.999,77.08,245.991L77.08,245.991z"/>
	</g>
	<path fill="#A9A39D" d="M393.751,199.153c19.851,0,36,16.149,36,36.001c0,19.85-16.149,36-36,36c-19.853,0-36.002-16.15-36.002-36
		C357.749,215.303,373.898,199.153,393.751,199.153 M393.751,195.153c-22.092,0-40.002,17.911-40.002,40.001
		c0,22.092,17.91,40,40.002,40c22.093,0,40-17.908,40-40C433.751,213.064,415.844,195.153,393.751,195.153L393.751,195.153z"/>
	<g>
		<path fill="#A9A39D" d="M383.268,226.721h-1.451v9.825h0.022v10.306c0,0.785,0.64,1.426,1.429,1.426h3.049v6.34
			c0,1.4,1.134,2.537,2.537,2.537c1.399,0,2.539-1.137,2.539-2.537v-6.34h4.72v6.34c0,1.4,1.139,2.537,2.537,2.537
			c1.403,0,2.538-1.137,2.538-2.537v-6.34h3.05c0.787,0,1.426-0.641,1.426-1.426v-10.306h0.022v-9.825h-1.448H383.268
			L383.268,226.721z"/>
		<path fill="#A9A39D" d="M409.495,225.908c-1.401,0-2.539,1.137-2.539,2.541v11.406c0,1.4,1.138,2.537,2.539,2.537
			c1.398,0,2.537-1.138,2.537-2.537v-11.406C412.032,227.045,410.895,225.908,409.495,225.908z"/>
		<path fill="#A9A39D" d="M378.008,225.908c-1.402,0-2.539,1.137-2.539,2.541v11.406c0,1.4,1.137,2.537,2.539,2.537
			c1.401,0,2.536-1.138,2.536-2.537v-11.406C380.544,227.045,379.409,225.908,378.008,225.908z"/>
		<path fill="#A9A39D" d="M399.505,216.371l2.041-2.883c0.043-0.059-0.018-0.174-0.135-0.258c-0.117-0.082-0.246-0.103-0.291-0.043
			l-2.104,2.977c-1.427-0.559-3.156-0.904-5.265-0.912c-2.118-0.006-3.858,0.33-5.287,0.879l-2.086-2.942
			c-0.041-0.06-0.172-0.039-0.286,0.043c-0.119,0.084-0.181,0.199-0.138,0.258l2.019,2.85c-5.881,2.601-6.056,8.979-6.056,8.979
			h23.668C405.585,225.316,405.346,218.992,399.505,216.371z M388.557,221.586c-0.787,0-1.424-0.639-1.424-1.424
			c0-0.789,0.637-1.428,1.424-1.428s1.426,0.639,1.426,1.428C389.98,220.947,389.344,221.586,388.557,221.586z M398.946,221.586
			c-0.789,0-1.428-0.639-1.428-1.424c0-0.789,0.639-1.428,1.428-1.428c0.784,0,1.422,0.639,1.422,1.428
			C400.368,220.947,399.73,221.586,398.946,221.586z"/>
	</g>
	<path fill="#A9A39D" d="M233.751,377.152c9.925,0,18,8.073,18,18c0,9.926-8.075,18-18,18c-9.926,0-18-8.074-18-18
		C215.751,385.226,223.825,377.152,233.751,377.152 M233.751,375.152c-11.047,0-20,8.955-20,20s8.953,20,20,20
		c11.045,0,20-8.955,20-20S244.796,375.152,233.751,375.152L233.751,375.152z"/>
	<g>
		<g>
			<path fill="#A9A39D" d="M239.205,395.79c-0.021-2.526,2.07-3.756,2.166-3.813c-1.186-1.728-3.021-1.963-3.666-1.979
				c-1.543-0.162-3.037,0.922-3.824,0.922c-0.801,0-2.01-0.905-3.314-0.881c-1.676,0.027-3.246,0.998-4.107,2.506
				c-1.775,3.076-0.451,7.595,1.25,10.082c0.852,1.218,1.846,2.576,3.148,2.527c1.273-0.054,1.75-0.812,3.287-0.812
				c1.523,0,1.971,0.812,3.299,0.783c1.366-0.022,2.229-1.223,3.049-2.451c0.983-1.396,1.379-2.771,1.396-2.842
				C241.855,399.819,239.232,398.819,239.205,395.79z"/>
			<path fill="#A9A39D" d="M236.697,388.358c0.686-0.855,1.154-2.021,1.023-3.205c-0.992,0.045-2.232,0.687-2.946,1.521
				c-0.633,0.74-1.197,1.949-1.051,3.089C234.838,389.847,235.982,389.202,236.697,388.358z"/>
		</g>
	</g>
	<path fill="#A9A39D" d="M73.749,377.152c9.926,0,18,8.073,18,18c0,9.926-8.074,18-18,18c-9.924,0-17.999-8.074-17.999-18
		C55.75,385.226,63.826,377.152,73.749,377.152 M73.749,375.152c-11.045,0-19.999,8.955-19.999,20s8.954,20,19.999,20
		s20-8.955,20-20S84.794,375.152,73.749,375.152L73.749,375.152z"/>
	<g>
		<path fill="#A9A39D" d="M69.968,389.258c0-0.711-0.435-1.604-2.253-1.604c-0.75,0-2.805,0-2.805,0l-0.791,3.684
			c0,0,1.512,0,2.914,0C69.317,391.336,69.968,390.258,69.968,389.258L69.968,389.258z"/>
		<path fill="#A9A39D" d="M77.514,389.258c0-0.711-0.434-1.604-2.254-1.604c-0.744,0-2.799,0-2.799,0l-0.797,3.684
			c0,0,1.513,0,2.918,0C76.865,391.336,77.514,390.258,77.514,389.258L77.514,389.258z"/>
		<path fill="#A9A39D" d="M68.956,394.799c0-0.709-0.435-1.6-2.255-1.6c-0.744,0-2.801,0-2.801,0l-0.797,3.678c0,0,1.516,0,2.924,0
			C68.305,396.877,68.956,395.799,68.956,394.799L68.956,394.799z"/>
		<path fill="#A9A39D" d="M76.502,394.799c0-0.709-0.434-1.6-2.25-1.6c-0.75,0-2.805,0-2.805,0l-0.795,3.678c0,0,1.514,0,2.917,0
			C75.851,396.877,76.502,395.799,76.502,394.799L76.502,394.799z"/>
		<path fill="#A9A39D" d="M84.396,392.553c0-0.709-0.431-1.604-2.25-1.604c-0.75,0-2.803,0-2.803,0l-0.797,3.686
			c0,0,1.514,0,2.918,0C83.748,394.633,84.396,393.553,84.396,392.553L84.396,392.553z"/>
		<path fill="#A9A39D" d="M83.31,398.324c0-0.707-0.434-1.604-2.254-1.604c-0.746,0-2.802,0-2.802,0l-0.794,3.685
			c0,0,1.514,0,2.918,0C82.66,400.404,83.31,399.326,83.31,398.324L83.31,398.324z"/>
		<path fill="#A9A39D" d="M75.416,400.57c0-0.707-0.431-1.604-2.248-1.604c-0.75,0-2.805,0-2.805,0l-0.796,3.687
			c0,0,1.517,0,2.924,0C74.769,402.652,75.416,401.574,75.416,400.57L75.416,400.57z"/>
	</g>
	<path fill="#A9A39D" d="M393.749,377.152c9.927,0,18.002,8.073,18.002,18c0,9.926-8.075,18-18.002,18c-9.924,0-18-8.074-18-18
		C375.749,385.226,383.825,377.152,393.749,377.152 M393.749,375.152c-11.045,0-20,8.955-20,20c0,11.047,8.955,20,20,20
		c11.047,0,20.002-8.953,20.002-20C413.751,384.107,404.796,375.152,393.749,375.152L393.749,375.152z"/>
	<g>
		<path fill="#A9A39D" d="M388.508,390.935h-0.726v4.912h0.012v5.151c0,0.394,0.319,0.713,0.714,0.713h1.523v3.17
			c0,0.701,0.566,1.271,1.27,1.271c0.701,0,1.27-0.568,1.27-1.271v-3.17h2.359v3.17c0,0.701,0.569,1.271,1.271,1.271
			c0.703,0,1.27-0.568,1.27-1.271v-3.17h1.525c0.393,0,0.713-0.319,0.713-0.713v-5.151h0.012v-4.912h-0.725H388.508z"/>
		<path fill="#A9A39D" d="M401.622,390.528c-0.701,0-1.271,0.567-1.271,1.271v5.702c0,0.701,0.568,1.271,1.271,1.271
			s1.271-0.568,1.271-1.271v-5.702C402.893,391.097,402.323,390.528,401.622,390.528z"/>
		<path fill="#A9A39D" d="M385.878,390.528c-0.7,0-1.271,0.567-1.271,1.271v5.702c0,0.701,0.567,1.271,1.271,1.271
			s1.271-0.568,1.271-1.271v-5.702C387.146,391.097,386.579,390.528,385.878,390.528z"/>
		<path fill="#A9A39D" d="M396.626,385.76l1.021-1.439c0.021-0.029-0.009-0.088-0.067-0.129c-0.058-0.041-0.123-0.053-0.146-0.021
			l-1.053,1.486c-0.713-0.279-1.578-0.451-2.633-0.455c-1.059-0.004-1.928,0.164-2.643,0.438l-1.043-1.471
			c-0.021-0.029-0.086-0.02-0.146,0.021s-0.088,0.1-0.066,0.129l1.01,1.424c-2.941,1.299-3.027,4.488-3.027,4.488h11.834
			C399.667,390.231,399.546,387.071,396.626,385.76z M391.15,388.368c-0.394,0-0.711-0.319-0.711-0.713
			c0-0.396,0.317-0.713,0.711-0.713c0.396,0,0.713,0.316,0.713,0.713C391.864,388.049,391.546,388.368,391.15,388.368z
			 M396.348,388.368c-0.394,0-0.713-0.319-0.713-0.713c0-0.396,0.319-0.713,0.713-0.713s0.713,0.316,0.713,0.713
			C397.059,388.049,396.739,388.368,396.348,388.368z"/>
	</g>
	<g>
		<path fill="#24684B" d="M74.69,72.039v3.114h-2.114l-1,13.126h3.114c7.248,0,13.125-5.877,13.125-13.126v-3.114H74.69z"/>
		<path fill="#6EC9E2" d="M74.69,60.154v0.771h-3.114l1,14.229h2.114h15C89.69,66.869,82.975,60.154,74.69,60.154z"/>
		<path fill="#2A8A5E" d="M59.69,75.154c0,2.757,0.747,5.338,2.045,7.558c1.11,3.045-1.428,3.576-3.607,3.611
			c-1.688,0.027,3.69,4.378,7.578,0.844c2.505,1.877,5.615,2.988,8.984,2.988V75.154v-15C66.406,60.154,59.69,66.869,59.69,75.154z
			 M69.83,77.785c-1.381,0-2.5-1.119-2.5-2.5c0-1.381,1.119-2.5,2.5-2.5s2.5,1.119,2.5,2.5C72.33,76.666,71.211,77.785,69.83,77.785
			z"/>
	</g>
	<g>
		<path fill="#FFFFFF" d="M191.683,67.201c1.381,1.173,2.07,2.975,2.07,5.405s-0.709,4.208-2.125,5.334
			c-1.418,1.126-3.58,1.688-6.49,1.688h-4.494v5.49h-4.393V65.44h8.83C188.104,65.442,190.304,66.028,191.683,67.201z
			 M188.46,74.942c0.525-0.59,0.789-1.454,0.789-2.59c0-1.134-0.344-1.942-1.027-2.421c-0.686-0.479-1.752-0.717-3.195-0.717h-4.383
			v6.615h4.832C186.94,75.829,187.934,75.534,188.46,74.942z"/>
		<path fill="#FFFFFF" d="M196.046,85.12V73.888c0-2.909,0.74-5.119,2.225-6.63c1.48-1.512,3.545-2.267,6.193-2.267
			c2.645,0,4.705,0.746,6.178,2.238c1.475,1.491,2.211,3.655,2.211,6.489v11.4h-4.42V80.5h-7.996v4.618L196.046,85.12L196.046,85.12
			z M200.436,73.746v2.872h7.996v-2.729c0-1.576-0.357-2.802-1.07-3.675c-0.715-0.872-1.693-1.309-2.941-1.309
			s-2.225,0.418-2.928,1.252C200.79,70.992,200.436,72.189,200.436,73.746z"/>
		<path fill="#FFFFFF" d="M231.599,71.973c0,3.152-1.248,5.189-3.744,6.108l4.982,7.039h-5.404l-4.363-6.278h-3.041v6.278h-4.391
			V65.441h7.459c3.061,0,5.242,0.517,6.547,1.548C230.948,68.022,231.599,69.683,231.599,71.973z M226.306,74.31
			c0.545-0.487,0.816-1.263,0.816-2.322c0-1.061-0.281-1.787-0.844-2.182c-0.562-0.395-1.547-0.592-2.955-0.592h-3.295v5.826h3.211
			C224.739,75.041,225.763,74.798,226.306,74.31z"/>
		<path fill="#FFFFFF" d="M250.657,71.973c0,3.152-1.248,5.189-3.744,6.108l4.981,7.039h-5.403l-4.363-6.278h-3.041v6.278h-4.391
			V65.441h7.459c3.059,0,5.24,0.517,6.545,1.548C250.005,68.022,250.657,69.683,250.657,71.973z M245.366,74.31
			c0.543-0.487,0.813-1.263,0.813-2.322c0-1.061-0.281-1.787-0.845-2.182s-1.547-0.592-2.955-0.592h-3.295v5.826h3.209
			C243.798,75.041,244.818,74.798,245.366,74.31z"/>
		<path fill="#FFFFFF" d="M270.109,82.403c-1.989,1.943-4.438,2.914-7.348,2.914c-2.91,0-5.359-0.971-7.349-2.914
			c-1.988-1.941-2.983-4.357-2.983-7.249c0-2.891,0.995-5.307,2.983-7.249c1.987-1.942,4.438-2.913,7.349-2.913
			c2.907,0,5.356,0.971,7.348,2.913c1.988,1.942,2.983,4.358,2.983,7.249C273.096,78.045,272.1,80.461,270.109,82.403z
			 M268.618,75.168c0-1.756-0.562-3.251-1.688-4.49c-1.125-1.238-2.511-1.857-4.152-1.857c-1.643,0-3.024,0.62-4.151,1.857
			c-1.127,1.239-1.688,2.734-1.688,4.49c0,1.754,0.562,3.246,1.688,4.478c1.127,1.229,2.511,1.844,4.151,1.844
			c1.643,0,3.027-0.615,4.152-1.844C268.057,78.414,268.618,76.922,268.618,75.168z"/>
		<path fill="#FFFFFF" d="M284.327,85.12h-4.42V69.298c-0.75,0.206-1.517,0.492-2.296,0.858c-0.778,0.366-1.375,0.681-1.786,0.943
			l-0.593,0.422l-2.31-3.351c0.994-0.9,2.351-1.657,4.068-2.266c1.717-0.611,3.42-0.915,5.108-0.915s3.39,0.304,5.096,0.915
			c1.707,0.608,3.06,1.365,4.054,2.266l-2.308,3.351c-1.391-1.014-2.928-1.755-4.616-2.225L284.327,85.12L284.327,85.12z"/>
	</g>
	<g>
		<path fill="#2A8A5E" d="M351.682,67.201c1.381,1.173,2.07,2.975,2.07,5.405s-0.709,4.208-2.125,5.334
			c-1.418,1.126-3.58,1.688-6.49,1.688h-4.494v5.49h-4.393V65.44h8.83C348.104,65.442,350.303,66.028,351.682,67.201z
			 M348.459,74.942c0.525-0.59,0.789-1.454,0.789-2.59c0-1.134-0.344-1.942-1.027-2.421c-0.686-0.479-1.752-0.717-3.195-0.717
			h-4.383v6.615h4.832C346.939,75.829,347.934,75.534,348.459,74.942z"/>
		<path fill="#2A8A5E" d="M356.045,85.12V73.888c0-2.909,0.74-5.119,2.225-6.63c1.48-1.512,3.545-2.267,6.193-2.267
			c2.645,0,4.705,0.746,6.178,2.238c1.477,1.491,2.211,3.655,2.211,6.489v11.4h-4.42V80.5h-7.996v4.618L356.045,85.12L356.045,85.12
			z M360.436,73.746v2.872h7.996v-2.729c0-1.576-0.356-2.802-1.07-3.675c-0.715-0.872-1.692-1.309-2.94-1.309
			s-2.226,0.418-2.928,1.252C360.789,70.992,360.436,72.189,360.436,73.746z"/>
		<path fill="#2A8A5E" d="M391.598,71.973c0,3.152-1.248,5.189-3.744,6.108l4.982,7.039h-5.404l-4.361-6.278h-3.041v6.278h-4.393
			V65.441h7.459c3.062,0,5.242,0.517,6.547,1.548C390.947,68.022,391.598,69.683,391.598,71.973z M386.305,74.31
			c0.545-0.487,0.816-1.263,0.816-2.322c0-1.061-0.281-1.787-0.844-2.182c-0.563-0.395-1.547-0.592-2.955-0.592h-3.295v5.826h3.211
			C384.738,75.041,385.762,74.798,386.305,74.31z"/>
		<path fill="#2A8A5E" d="M410.656,71.973c0,3.152-1.248,5.189-3.744,6.108l4.981,7.039h-5.403l-4.363-6.278h-3.041v6.278h-4.391
			V65.441h7.459c3.059,0,5.24,0.517,6.545,1.548C410.004,68.022,410.656,69.683,410.656,71.973z M405.365,74.31
			c0.543-0.487,0.813-1.263,0.813-2.322c0-1.061-0.28-1.787-0.845-2.182c-0.562-0.395-1.547-0.592-2.955-0.592h-3.295v5.826h3.209
			C403.797,75.041,404.818,74.798,405.365,74.31z"/>
		<path fill="#2A8A5E" d="M430.109,82.403c-1.99,1.943-4.439,2.914-7.349,2.914c-2.91,0-5.358-0.971-7.349-2.914
			c-1.987-1.941-2.983-4.357-2.983-7.249c0-2.891,0.996-5.307,2.983-7.249c1.987-1.942,4.438-2.913,7.349-2.913
			c2.907,0,5.356,0.971,7.349,2.913c1.987,1.942,2.983,4.358,2.983,7.249C433.093,78.045,432.098,80.461,430.109,82.403z
			 M428.617,75.168c0-1.756-0.562-3.251-1.689-4.49c-1.125-1.238-2.51-1.857-4.151-1.857s-3.024,0.62-4.151,1.857
			c-1.127,1.239-1.688,2.734-1.688,4.49c0,1.754,0.562,3.246,1.688,4.478c1.127,1.229,2.511,1.844,4.151,1.844
			c1.643,0,3.026-0.615,4.151-1.844C428.055,78.414,428.617,76.922,428.617,75.168z"/>
		<path fill="#2A8A5E" d="M444.326,85.12h-4.42V69.298c-0.75,0.206-1.517,0.492-2.295,0.858c-0.779,0.366-1.375,0.681-1.787,0.943
			l-0.592,0.422l-2.311-3.351c0.994-0.9,2.352-1.657,4.068-2.266c1.717-0.611,3.42-0.915,5.107-0.915
			c1.689,0,3.391,0.304,5.098,0.915c1.707,0.608,3.059,1.365,4.053,2.266l-2.309,3.351c-1.391-1.014-2.928-1.755-4.615-2.225
			L444.326,85.12L444.326,85.12z"/>
	</g>
	<g>
		<path fill="#A9A39D" d="M76.239,520.153h-0.301c-19.227,0-34.814,15.588-34.814,34.815c0,5.853,1.461,11.356,4.014,16.198
			c0,0,0.193,0.396,0.229,0.463c5.934,10.783-1.645,12.533-8.074,12.634c-4.65,0.078,11.01,12.59,21.326,0.903
			c5.127,2.962,10.979,4.615,17.32,4.615h0.301c19.229,0,34.811-15.59,34.811-34.813C111.05,535.741,95.468,520.153,76.239,520.153z
			 M82.04,561.444c-8.014,8.014-16.123,10.073-18.297,7.896c-1.885-1.885-5.18-4.182-0.891-7.631
			c4.289-3.446,5.488-1.752,7.436,0.193c1.357,1.358,4.797-1.479,7.766-4.447c2.969-2.968,5.807-6.406,4.447-7.767
			c-1.945-1.944-3.641-3.146-0.191-7.434c3.447-4.289,5.744-0.996,7.629,0.889C92.114,545.323,90.054,553.431,82.04,561.444z"/>
	</g>
	<g>
		<g>
			<path fill="#2A8A5E" d="M236.24,520.153h-0.301c-19.228,0-34.814,15.588-34.814,34.815c0,5.851,1.461,11.354,4.014,16.198
				c0,0,0.193,0.396,0.229,0.461c5.934,10.783-1.645,12.535-8.074,12.636c-4.65,0.076,11.01,12.59,21.326,0.903l0,0
				c5.127,2.962,10.979,4.615,17.319,4.615h0.302c19.229,0,34.812-15.592,34.812-34.813
				C271.051,535.741,255.469,520.153,236.24,520.153z"/>
		</g>
		<g>
			<path fill="#24684B" d="M237.514,553.903v13.125c7.25,0,13.125-5.877,13.125-13.125H237.514z"/>
			<path fill="#6EC9E2" d="M237.514,538.903v15h15C252.514,545.62,245.799,538.903,237.514,538.903z"/>
			<path fill="#FFFFFF" d="M222.514,553.903c0,2.758,0.748,5.338,2.045,7.557c1.111,3.046-1.428,3.576-3.607,3.611
				c-1.688,0.026,3.689,4.379,7.578,0.844c2.504,1.877,5.615,2.988,8.983,2.988v-15v-15
				C229.23,538.903,222.514,545.62,222.514,553.903z M232.654,556.536c-1.381,0-2.5-1.119-2.5-2.5s1.119-2.5,2.5-2.5
				c1.381,0,2.5,1.119,2.5,2.5S234.035,556.536,232.654,556.536z"/>
		</g>
	</g>
	<path fill="#FFFFFF" d="M237.775,714.207l-6.158-6.16c-0.523-0.521-1.373-0.521-1.895,0c-0.523,0.523-0.523,1.371,0,1.896
		l5.211,5.211l-5.211,5.211c-0.523,0.522-0.523,1.373,0,1.896c0.521,0.522,1.371,0.522,1.895,0l6.158-6.158
		C238.301,715.578,238.301,714.73,237.775,714.207z"/>
	<path fill="#FFFFFF" d="M69.723,716.1l6.16,6.16c0.521,0.524,1.371,0.524,1.893,0c0.525-0.521,0.525-1.371,0-1.896l-5.211-5.211
		l5.211-5.211c0.525-0.525,0.525-1.373,0-1.896c-0.521-0.521-1.371-0.521-1.893,0l-6.16,6.158
		C69.199,714.729,69.199,715.578,69.723,716.1z"/>
</g>
<g id="Guides" display="none">
</g>
<path fill="#FFFFFF" d="M237.703,800.675c9.925,0,18,8.074,18,18s-8.075,18-18,18c-9.926,0-18-8.074-18-18
	S227.777,800.675,237.703,800.675 M237.703,798.675c-11.047,0-20,8.955-20,20s8.953,20,20,20c11.045,0,20-8.955,20-20
	S248.748,798.675,237.703,798.675L237.703,798.675z"/>
<g>
	<g>
		<path fill="#FFFFFF" d="M243.157,819.312c-0.021-2.526,2.069-3.757,2.166-3.813c-1.187-1.728-3.021-1.963-3.666-1.979
			c-1.543-0.162-3.037,0.922-3.824,0.922c-0.801,0-2.01-0.905-3.314-0.881c-1.676,0.026-3.246,0.997-4.107,2.506
			c-1.775,3.075-0.451,7.595,1.25,10.082c0.852,1.218,1.846,2.575,3.148,2.526c1.273-0.053,1.75-0.812,3.287-0.812
			c1.523,0,1.972,0.812,3.3,0.783c1.366-0.022,2.229-1.224,3.048-2.451c0.984-1.396,1.38-2.771,1.396-2.842
			C245.809,823.342,243.186,822.342,243.157,819.312z"/>
		<path fill="#FFFFFF" d="M240.649,811.881c0.686-0.854,1.154-2.021,1.023-3.205c-0.992,0.045-2.232,0.688-2.945,1.522
			c-0.633,0.739-1.197,1.948-1.051,3.089C238.79,813.369,239.935,812.725,240.649,811.881z"/>
	</g>
</g>
<path fill="#FFFFFF" d="M77.701,800.675c9.926,0,18,8.074,18,18s-8.074,18-18,18c-9.924,0-17.999-8.074-17.999-18
	S67.778,800.675,77.701,800.675 M77.701,798.675c-11.045,0-19.999,8.955-19.999,20s8.954,20,19.999,20s20-8.955,20-20
	S88.746,798.675,77.701,798.675L77.701,798.675z"/>
<g>
	<path fill="#FFFFFF" d="M73.92,812.78c0-0.711-0.435-1.604-2.253-1.604c-0.75,0-2.805,0-2.805,0l-0.791,3.685c0,0,1.512,0,2.914,0
		C73.269,814.858,73.92,813.78,73.92,812.78L73.92,812.78z"/>
	<path fill="#FFFFFF" d="M81.466,812.78c0-0.711-0.434-1.604-2.254-1.604c-0.744,0-2.799,0-2.799,0l-0.797,3.685
		c0,0,1.513,0,2.918,0C80.817,814.858,81.466,813.78,81.466,812.78L81.466,812.78z"/>
	<path fill="#FFFFFF" d="M72.908,818.321c0-0.709-0.435-1.601-2.255-1.601c-0.744,0-2.801,0-2.801,0l-0.797,3.679
		c0,0,1.516,0,2.924,0C72.257,820.399,72.908,819.321,72.908,818.321L72.908,818.321z"/>
	<path fill="#FFFFFF" d="M80.454,818.321c0-0.709-0.434-1.601-2.25-1.601c-0.75,0-2.805,0-2.805,0l-0.795,3.679c0,0,1.514,0,2.917,0
		C79.803,820.399,80.454,819.321,80.454,818.321L80.454,818.321z"/>
	<path fill="#FFFFFF" d="M88.348,816.075c0-0.709-0.431-1.605-2.25-1.605c-0.75,0-2.803,0-2.803,0l-0.797,3.687c0,0,1.514,0,2.918,0
		C87.7,818.155,88.348,817.075,88.348,816.075L88.348,816.075z"/>
	<path fill="#FFFFFF" d="M87.262,821.847c0-0.707-0.434-1.604-2.254-1.604c-0.746,0-2.802,0-2.802,0l-0.794,3.684
		c0,0,1.514,0,2.918,0C86.612,823.927,87.262,822.849,87.262,821.847L87.262,821.847z"/>
	<path fill="#FFFFFF" d="M79.368,824.093c0-0.707-0.431-1.604-2.248-1.604c-0.75,0-2.805,0-2.805,0l-0.796,3.686
		c0,0,1.517,0,2.924,0C78.721,826.175,79.368,825.097,79.368,824.093L79.368,824.093z"/>
</g>
<path fill="#FFFFFF" d="M397.701,800.675c9.927,0,18.002,8.074,18.002,18s-8.075,18-18.002,18c-9.924,0-18-8.074-18-18
	S387.777,800.675,397.701,800.675 M397.701,798.675c-11.045,0-20,8.955-20,20c0,11.047,8.955,20,20,20
	c11.047,0,20.002-8.953,20.002-20C417.703,807.63,408.748,798.675,397.701,798.675L397.701,798.675z"/>
<g>
	<path fill="#FFFFFF" d="M392.46,814.457h-0.726v4.912h0.012v5.15c0,0.395,0.32,0.714,0.714,0.714h1.524v3.17
		c0,0.7,0.564,1.271,1.269,1.271c0.701,0,1.271-0.568,1.271-1.271v-3.17h2.358v3.17c0,0.7,0.569,1.271,1.271,1.271
		c0.702,0,1.27-0.568,1.27-1.271v-3.17h1.525c0.393,0,0.713-0.319,0.713-0.714v-5.15h0.012v-4.912h-0.725H392.46z"/>
	<path fill="#FFFFFF" d="M405.574,814.051c-0.701,0-1.271,0.568-1.271,1.271v5.702c0,0.7,0.568,1.271,1.271,1.271
		s1.271-0.568,1.271-1.271v-5.702C406.845,814.619,406.275,814.051,405.574,814.051z"/>
	<path fill="#FFFFFF" d="M389.83,814.051c-0.7,0-1.271,0.568-1.271,1.271v5.702c0,0.7,0.568,1.271,1.271,1.271
		s1.271-0.568,1.271-1.271v-5.702C391.1,814.619,390.531,814.051,389.83,814.051z"/>
	<path fill="#FFFFFF" d="M400.578,809.282l1.021-1.44c0.021-0.029-0.008-0.088-0.066-0.129s-0.123-0.052-0.146-0.021l-1.053,1.485
		c-0.713-0.278-1.578-0.451-2.633-0.455c-1.06-0.004-1.929,0.164-2.644,0.438l-1.043-1.472c-0.021-0.028-0.086-0.02-0.146,0.021
		s-0.089,0.1-0.067,0.129l1.01,1.424c-2.94,1.299-3.026,4.488-3.026,4.488h11.834C403.619,813.754,403.498,810.594,400.578,809.282z
		 M395.104,811.891c-0.394,0-0.711-0.318-0.711-0.713c0-0.396,0.317-0.713,0.711-0.713c0.396,0,0.713,0.317,0.713,0.713
		C395.816,811.571,395.498,811.891,395.104,811.891z M400.3,811.891c-0.394,0-0.713-0.318-0.713-0.713
		c0-0.396,0.319-0.713,0.713-0.713s0.713,0.317,0.713,0.713C401.011,811.571,400.691,811.891,400.3,811.891z"/>
</g>
<g>
	<g>
		<g>
			<path fill="#FFFFFF" d="M405.145,563.195l-4.326-4.328c2.514-3.645,2.154-8.676-1.089-11.92c-3.657-3.656-9.585-3.656-13.24,0
				s-3.655,9.584,0,13.24c3.243,3.244,8.272,3.602,11.921,1.088l4.327,4.328c0.665,0.664,1.742,0.664,2.407,0
				S405.81,563.861,405.145,563.195z M397.322,557.779c-2.326,2.328-6.099,2.328-8.427,0c-2.326-2.326-2.325-6.098,0-8.424
				c2.328-2.328,6.101-2.328,8.427,0C399.648,551.682,399.647,555.453,397.322,557.779z"/>
		</g>
	</g>
</g>
</svg>
